<mxfile host="app.diagrams.net" agent="Mozilla/5.0 (X11; Linux x86_64) AppleWebKit/537.36 (KHTML, like Gecko) Chrome/132.0.0.0 Safari/537.36" version="26.0.11">
  <diagram id="6a731a19-8d31-9384-78a2-239565b7b9f0" name="Page-1">
    <mxGraphModel dx="5090" dy="175" grid="1" gridSize="10" guides="1" tooltips="1" connect="1" arrows="1" fold="1" page="1" pageScale="1" pageWidth="4681" pageHeight="3300" background="none" math="0" shadow="0">
      <root>
        <mxCell id="0" />
        <mxCell id="1" parent="0" />
        <mxCell id="jr-n6Z9DIesCHv_oQTnh-1545" value="ML / AI Models" style="rounded=0;whiteSpace=wrap;html=1;" parent="1" vertex="1">
          <mxGeometry x="-200" y="20" width="120" height="40" as="geometry" />
        </mxCell>
        <mxCell id="jr-n6Z9DIesCHv_oQTnh-1546" value="Supervised Learning" style="rounded=0;whiteSpace=wrap;html=1;" parent="1" vertex="1">
          <mxGeometry x="-1360" y="100" width="120" height="40" as="geometry" />
        </mxCell>
        <mxCell id="jr-n6Z9DIesCHv_oQTnh-1548" value="Reinforcement Learning" style="rounded=0;whiteSpace=wrap;html=1;" parent="1" vertex="1">
          <mxGeometry x="-590" y="100" width="150" height="40" as="geometry" />
        </mxCell>
        <mxCell id="jr-n6Z9DIesCHv_oQTnh-1549" value="Unsupervised Learning" style="rounded=0;whiteSpace=wrap;html=1;" parent="1" vertex="1">
          <mxGeometry x="-1000" y="100" width="150" height="40" as="geometry" />
        </mxCell>
        <mxCell id="jr-n6Z9DIesCHv_oQTnh-1550" value="Generative Models" style="rounded=0;whiteSpace=wrap;html=1;" parent="1" vertex="1">
          <mxGeometry x="-360" y="100" width="150" height="40" as="geometry" />
        </mxCell>
        <mxCell id="jr-n6Z9DIesCHv_oQTnh-1551" value="Transfer Learning" style="rounded=0;whiteSpace=wrap;html=1;" parent="1" vertex="1">
          <mxGeometry x="-160" y="100" width="130" height="40" as="geometry" />
        </mxCell>
        <mxCell id="jr-n6Z9DIesCHv_oQTnh-1552" value="Semi-Supervised Learning" style="rounded=0;whiteSpace=wrap;html=1;" parent="1" vertex="1">
          <mxGeometry x="40" y="100" width="150" height="40" as="geometry" />
        </mxCell>
        <mxCell id="jr-n6Z9DIesCHv_oQTnh-1553" value="Ensemble Learning" style="rounded=0;whiteSpace=wrap;html=1;" parent="1" vertex="1">
          <mxGeometry x="270" y="100" width="150" height="40" as="geometry" />
        </mxCell>
        <mxCell id="jr-n6Z9DIesCHv_oQTnh-1554" value="Natural Language Processing (NLP)" style="rounded=0;whiteSpace=wrap;html=1;" parent="1" vertex="1">
          <mxGeometry x="490" y="100" width="180" height="40" as="geometry" />
        </mxCell>
        <mxCell id="jr-n6Z9DIesCHv_oQTnh-1555" value="Computer Vision" style="rounded=0;whiteSpace=wrap;html=1;" parent="1" vertex="1">
          <mxGeometry x="720" y="100" width="165" height="40" as="geometry" />
        </mxCell>
        <mxCell id="jr-n6Z9DIesCHv_oQTnh-1556" value="Speech Recognition and Synthesis" style="rounded=0;whiteSpace=wrap;html=1;" parent="1" vertex="1">
          <mxGeometry x="945" y="100" width="220" height="40" as="geometry" />
        </mxCell>
        <mxCell id="jr-n6Z9DIesCHv_oQTnh-1557" value="Robotics" style="rounded=0;whiteSpace=wrap;html=1;" parent="1" vertex="1">
          <mxGeometry x="1210" y="100" width="180" height="40" as="geometry" />
        </mxCell>
        <mxCell id="jr-n6Z9DIesCHv_oQTnh-1558" value="&lt;font style=&quot;font-size: 10px;&quot;&gt;Regression&lt;/font&gt;" style="rounded=0;whiteSpace=wrap;html=1;" parent="1" vertex="1">
          <mxGeometry x="-1285" y="160" width="70" height="30" as="geometry" />
        </mxCell>
        <mxCell id="jr-n6Z9DIesCHv_oQTnh-1559" value="&lt;font style=&quot;font-size: 10px;&quot;&gt;Classification&lt;/font&gt;" style="rounded=0;whiteSpace=wrap;html=1;" parent="1" vertex="1">
          <mxGeometry x="-1390" y="160" width="70" height="30" as="geometry" />
        </mxCell>
        <mxCell id="jr-n6Z9DIesCHv_oQTnh-1561" value="" style="endArrow=none;dashed=1;html=1;rounded=0;" parent="1" edge="1">
          <mxGeometry width="50" height="50" relative="1" as="geometry">
            <mxPoint x="-1300.09" y="140" as="sourcePoint" />
            <mxPoint x="-1300" y="180" as="targetPoint" />
          </mxGeometry>
        </mxCell>
        <mxCell id="jr-n6Z9DIesCHv_oQTnh-1562" value="" style="endArrow=none;dashed=1;html=1;rounded=0;entryX=0.023;entryY=0.659;entryDx=0;entryDy=0;entryPerimeter=0;" parent="1" target="jr-n6Z9DIesCHv_oQTnh-1558" edge="1">
          <mxGeometry width="50" height="50" relative="1" as="geometry">
            <mxPoint x="-1300" y="175" as="sourcePoint" />
            <mxPoint x="-1250" y="130" as="targetPoint" />
            <Array as="points">
              <mxPoint x="-1290" y="175" />
            </Array>
          </mxGeometry>
        </mxCell>
        <mxCell id="jr-n6Z9DIesCHv_oQTnh-1564" value="" style="endArrow=none;dashed=1;html=1;rounded=0;" parent="1" edge="1">
          <mxGeometry width="50" height="50" relative="1" as="geometry">
            <mxPoint x="-1280" y="190" as="sourcePoint" />
            <mxPoint x="-1280" y="440" as="targetPoint" />
          </mxGeometry>
        </mxCell>
        <mxCell id="jr-n6Z9DIesCHv_oQTnh-1565" value="" style="endArrow=none;dashed=1;html=1;rounded=0;" parent="1" edge="1">
          <mxGeometry width="50" height="50" relative="1" as="geometry">
            <mxPoint x="-1280" y="200" as="sourcePoint" />
            <mxPoint x="-1260" y="200" as="targetPoint" />
          </mxGeometry>
        </mxCell>
        <mxCell id="jr-n6Z9DIesCHv_oQTnh-1567" value="" style="endArrow=none;dashed=1;html=1;rounded=0;" parent="1" edge="1">
          <mxGeometry width="50" height="50" relative="1" as="geometry">
            <mxPoint x="-1280" y="220" as="sourcePoint" />
            <mxPoint x="-1260" y="220" as="targetPoint" />
          </mxGeometry>
        </mxCell>
        <mxCell id="jr-n6Z9DIesCHv_oQTnh-1568" value="&lt;a style=&quot;box-sizing: border-box; background-color: rgb(246, 248, 250); outline: none; outline-offset: -2px; box-shadow: none; font-family: -apple-system, BlinkMacSystemFont, &amp;quot;Segoe UI&amp;quot;, &amp;quot;Noto Sans&amp;quot;, Helvetica, Arial, sans-serif, &amp;quot;Apple Color Emoji&amp;quot;, &amp;quot;Segoe UI Emoji&amp;quot;; text-align: left; text-wrap-mode: nowrap;&quot; href=&quot;https://github.com/PetarS96/ML_Theory/tree/master/ML_Models/Supervised%20Learning/Regression%20models/Decision_Tree_Regressor&quot; class=&quot;Link--primary&quot; aria-label=&quot;Decision_Tree_Regressor, (Directory)&quot; title=&quot;Decision_Tree_Regressor&quot;&gt;&lt;font style=&quot;font-size: 6px;&quot;&gt;Decision_Tree_Regressor&lt;/font&gt;&lt;/a&gt;" style="text;html=1;align=center;verticalAlign=middle;whiteSpace=wrap;rounded=0;" parent="1" vertex="1">
          <mxGeometry x="-1260" y="210" width="70" height="20" as="geometry" />
        </mxCell>
        <mxCell id="jr-n6Z9DIesCHv_oQTnh-1569" value="" style="endArrow=none;dashed=1;html=1;rounded=0;" parent="1" edge="1">
          <mxGeometry width="50" height="50" relative="1" as="geometry">
            <mxPoint x="-1280" y="240" as="sourcePoint" />
            <mxPoint x="-1260" y="240" as="targetPoint" />
          </mxGeometry>
        </mxCell>
        <mxCell id="jr-n6Z9DIesCHv_oQTnh-1570" value="&lt;a style=&quot;box-sizing: border-box; background-color: rgb(255, 255, 255); text-decoration-line: none; font-family: -apple-system, BlinkMacSystemFont, &amp;quot;Segoe UI&amp;quot;, &amp;quot;Noto Sans&amp;quot;, Helvetica, Arial, sans-serif, &amp;quot;Apple Color Emoji&amp;quot;, &amp;quot;Segoe UI Emoji&amp;quot;; text-align: left; text-wrap-mode: nowrap;&quot; href=&quot;https://github.com/PetarS96/ML_Theory/tree/master/ML_Models/Supervised%20Learning/Regression%20models/Elastic_Net&quot; class=&quot;Link--primary&quot; aria-label=&quot;Elastic_Net, (Directory)&quot; title=&quot;Elastic_Net&quot;&gt;&lt;font style=&quot;font-size: 6px;&quot;&gt;Elastic_Net&lt;/font&gt;&lt;/a&gt;" style="text;html=1;align=center;verticalAlign=middle;whiteSpace=wrap;rounded=0;" parent="1" vertex="1">
          <mxGeometry x="-1260" y="230" width="40" height="20" as="geometry" />
        </mxCell>
        <mxCell id="jr-n6Z9DIesCHv_oQTnh-1572" value="" style="endArrow=none;dashed=1;html=1;rounded=0;" parent="1" edge="1">
          <mxGeometry width="50" height="50" relative="1" as="geometry">
            <mxPoint x="-1280" y="260" as="sourcePoint" />
            <mxPoint x="-1260" y="260" as="targetPoint" />
          </mxGeometry>
        </mxCell>
        <mxCell id="jr-n6Z9DIesCHv_oQTnh-1573" value="&lt;a style=&quot;box-sizing: border-box; background-color: rgb(255, 255, 255); text-decoration-line: none; font-family: -apple-system, BlinkMacSystemFont, &amp;quot;Segoe UI&amp;quot;, &amp;quot;Noto Sans&amp;quot;, Helvetica, Arial, sans-serif, &amp;quot;Apple Color Emoji&amp;quot;, &amp;quot;Segoe UI Emoji&amp;quot;; text-align: left; text-wrap-mode: nowrap;&quot; href=&quot;https://github.com/PetarS96/ML_Theory/tree/master/ML_Models/Supervised%20Learning/Regression%20models/Gradient_boosting_regressor&quot; class=&quot;Link--primary&quot; aria-label=&quot;Gradient_boosting_regressor, (Directory)&quot; title=&quot;Gradient_boosting_regressor&quot;&gt;&lt;font style=&quot;font-size: 6px;&quot;&gt;Gradient_boosting_regressor&lt;/font&gt;&lt;/a&gt;" style="text;html=1;align=center;verticalAlign=middle;whiteSpace=wrap;rounded=0;" parent="1" vertex="1">
          <mxGeometry x="-1260" y="250" width="90" height="20" as="geometry" />
        </mxCell>
        <mxCell id="jr-n6Z9DIesCHv_oQTnh-1575" value="" style="endArrow=none;dashed=1;html=1;rounded=0;" parent="1" edge="1">
          <mxGeometry width="50" height="50" relative="1" as="geometry">
            <mxPoint x="-1280" y="280" as="sourcePoint" />
            <mxPoint x="-1260" y="280" as="targetPoint" />
          </mxGeometry>
        </mxCell>
        <mxCell id="jr-n6Z9DIesCHv_oQTnh-1576" value="&lt;a style=&quot;box-sizing: border-box; font-family: -apple-system, BlinkMacSystemFont, &amp;quot;Segoe UI&amp;quot;, &amp;quot;Noto Sans&amp;quot;, Helvetica, Arial, sans-serif, &amp;quot;Apple Color Emoji&amp;quot;, &amp;quot;Segoe UI Emoji&amp;quot;; text-align: left; text-wrap-mode: nowrap;&quot; href=&quot;https://github.com/PetarS96/ML_Theory/tree/master/ML_Models/Supervised%20Learning/Regression%20models/KNN_regressor&quot; class=&quot;Link--primary&quot; aria-label=&quot;KNN_regressor, (Directory)&quot; title=&quot;KNN_regressor&quot;&gt;&lt;font style=&quot;font-size: 6px; background-color: light-dark(#ffffff, var(--ge-dark-color, #121212));&quot;&gt;KNN_regressor&lt;/font&gt;&lt;/a&gt;" style="text;html=1;align=center;verticalAlign=middle;whiteSpace=wrap;rounded=0;" parent="1" vertex="1">
          <mxGeometry x="-1260" y="270" width="50" height="20" as="geometry" />
        </mxCell>
        <mxCell id="jr-n6Z9DIesCHv_oQTnh-1577" value="" style="endArrow=none;dashed=1;html=1;rounded=0;" parent="1" edge="1">
          <mxGeometry width="50" height="50" relative="1" as="geometry">
            <mxPoint x="-1280" y="200" as="sourcePoint" />
            <mxPoint x="-1260" y="200" as="targetPoint" />
          </mxGeometry>
        </mxCell>
        <mxCell id="jr-n6Z9DIesCHv_oQTnh-1578" value="&lt;a style=&quot;box-sizing: border-box; background-color: rgb(255, 255, 255); text-decoration-line: none; font-family: -apple-system, BlinkMacSystemFont, &amp;quot;Segoe UI&amp;quot;, &amp;quot;Noto Sans&amp;quot;, Helvetica, Arial, sans-serif, &amp;quot;Apple Color Emoji&amp;quot;, &amp;quot;Segoe UI Emoji&amp;quot;; text-align: left; text-wrap-mode: nowrap;&quot; href=&quot;https://github.com/PetarS96/ML_Theory/tree/master/ML_Models/Supervised%20Learning/Regression%20models/AdaBoost%20Regressor&quot; class=&quot;Link--primary&quot; aria-label=&quot;AdaBoost Regressor, (Directory)&quot; title=&quot;AdaBoost Regressor&quot;&gt;&lt;font style=&quot;font-size: 6px;&quot;&gt;AdaBoost Regressor&lt;/font&gt;&lt;/a&gt;" style="text;html=1;align=center;verticalAlign=middle;whiteSpace=wrap;rounded=0;" parent="1" vertex="1">
          <mxGeometry x="-1260" y="190" width="60" height="20" as="geometry" />
        </mxCell>
        <mxCell id="jr-n6Z9DIesCHv_oQTnh-1580" value="" style="endArrow=none;dashed=1;html=1;rounded=0;" parent="1" edge="1">
          <mxGeometry width="50" height="50" relative="1" as="geometry">
            <mxPoint x="-1280" y="300" as="sourcePoint" />
            <mxPoint x="-1260" y="300" as="targetPoint" />
          </mxGeometry>
        </mxCell>
        <mxCell id="jr-n6Z9DIesCHv_oQTnh-1581" value="&lt;a style=&quot;box-sizing: border-box; background-color: rgb(255, 255, 255); text-decoration-line: none; font-family: -apple-system, BlinkMacSystemFont, &amp;quot;Segoe UI&amp;quot;, &amp;quot;Noto Sans&amp;quot;, Helvetica, Arial, sans-serif, &amp;quot;Apple Color Emoji&amp;quot;, &amp;quot;Segoe UI Emoji&amp;quot;; text-align: left; text-wrap-mode: nowrap;&quot; href=&quot;https://github.com/PetarS96/ML_Theory/tree/master/ML_Models/Supervised%20Learning/Regression%20models/LASSO_Regression&quot; class=&quot;Link--primary&quot; aria-label=&quot;LASSO_Regression, (Directory)&quot; title=&quot;LASSO_Regression&quot;&gt;&lt;font style=&quot;font-size: 6px;&quot;&gt;LASSO_Regression&lt;/font&gt;&lt;/a&gt;" style="text;html=1;align=center;verticalAlign=middle;whiteSpace=wrap;rounded=0;" parent="1" vertex="1">
          <mxGeometry x="-1260" y="290" width="60" height="20" as="geometry" />
        </mxCell>
        <mxCell id="jr-n6Z9DIesCHv_oQTnh-1582" value="" style="endArrow=none;dashed=1;html=1;rounded=0;" parent="1" edge="1">
          <mxGeometry width="50" height="50" relative="1" as="geometry">
            <mxPoint x="-1280" y="320" as="sourcePoint" />
            <mxPoint x="-1260" y="320" as="targetPoint" />
          </mxGeometry>
        </mxCell>
        <mxCell id="jr-n6Z9DIesCHv_oQTnh-1583" value="&lt;a style=&quot;box-sizing: border-box; background-color: rgb(255, 255, 255); text-decoration-line: none; font-family: -apple-system, BlinkMacSystemFont, &amp;quot;Segoe UI&amp;quot;, &amp;quot;Noto Sans&amp;quot;, Helvetica, Arial, sans-serif, &amp;quot;Apple Color Emoji&amp;quot;, &amp;quot;Segoe UI Emoji&amp;quot;; text-align: left; text-wrap-mode: nowrap;&quot; href=&quot;https://github.com/PetarS96/ML_Theory/tree/master/ML_Models/Supervised%20Learning/Regression%20models/LightGBM_Regressor&quot; class=&quot;Link--primary&quot; aria-label=&quot;LightGBM_Regressor, (Directory)&quot; title=&quot;LightGBM_Regressor&quot;&gt;&lt;font style=&quot;font-size: 6px;&quot;&gt;LightGBM_Regressor&lt;/font&gt;&lt;/a&gt;" style="text;html=1;align=center;verticalAlign=middle;whiteSpace=wrap;rounded=0;" parent="1" vertex="1">
          <mxGeometry x="-1260" y="310" width="70" height="20" as="geometry" />
        </mxCell>
        <mxCell id="jr-n6Z9DIesCHv_oQTnh-1584" value="" style="endArrow=none;dashed=1;html=1;rounded=0;" parent="1" edge="1">
          <mxGeometry width="50" height="50" relative="1" as="geometry">
            <mxPoint x="-1280" y="340" as="sourcePoint" />
            <mxPoint x="-1260" y="340" as="targetPoint" />
          </mxGeometry>
        </mxCell>
        <mxCell id="jr-n6Z9DIesCHv_oQTnh-1585" value="&lt;a style=&quot;box-sizing: border-box; background-color: rgb(255, 255, 255); text-decoration-line: none; font-family: -apple-system, BlinkMacSystemFont, &amp;quot;Segoe UI&amp;quot;, &amp;quot;Noto Sans&amp;quot;, Helvetica, Arial, sans-serif, &amp;quot;Apple Color Emoji&amp;quot;, &amp;quot;Segoe UI Emoji&amp;quot;; text-align: left; text-wrap-mode: nowrap;&quot; href=&quot;https://github.com/PetarS96/ML_Theory/tree/master/ML_Models/Supervised%20Learning/Regression%20models/Linear_regression&quot; class=&quot;Link--primary&quot; aria-label=&quot;Linear_regression, (Directory)&quot; title=&quot;Linear_regression&quot;&gt;&lt;font style=&quot;font-size: 6px;&quot;&gt;Linear_regression&lt;/font&gt;&lt;/a&gt;" style="text;html=1;align=center;verticalAlign=middle;whiteSpace=wrap;rounded=0;" parent="1" vertex="1">
          <mxGeometry x="-1260" y="330" width="60" height="20" as="geometry" />
        </mxCell>
        <mxCell id="jr-n6Z9DIesCHv_oQTnh-1586" value="" style="endArrow=none;dashed=1;html=1;rounded=0;" parent="1" edge="1">
          <mxGeometry width="50" height="50" relative="1" as="geometry">
            <mxPoint x="-1281.25" y="360" as="sourcePoint" />
            <mxPoint x="-1261.25" y="360" as="targetPoint" />
          </mxGeometry>
        </mxCell>
        <mxCell id="jr-n6Z9DIesCHv_oQTnh-1587" value="&lt;a style=&quot;box-sizing: border-box; background-color: rgb(255, 255, 255); text-decoration-line: none; font-family: -apple-system, BlinkMacSystemFont, &amp;quot;Segoe UI&amp;quot;, &amp;quot;Noto Sans&amp;quot;, Helvetica, Arial, sans-serif, &amp;quot;Apple Color Emoji&amp;quot;, &amp;quot;Segoe UI Emoji&amp;quot;; text-align: left; text-wrap-mode: nowrap;&quot; href=&quot;https://github.com/PetarS96/ML_Theory/tree/master/ML_Models/Supervised%20Learning/Regression%20models/Polynomial_regression&quot; class=&quot;Link--primary&quot; aria-label=&quot;Polynomial_regression, (Directory)&quot; title=&quot;Polynomial_regression&quot;&gt;&lt;font style=&quot;font-size: 6px;&quot;&gt;Polynomial_regression&lt;/font&gt;&lt;/a&gt;" style="text;html=1;align=center;verticalAlign=middle;whiteSpace=wrap;rounded=0;" parent="1" vertex="1">
          <mxGeometry x="-1263.75" y="350" width="65" height="20" as="geometry" />
        </mxCell>
        <mxCell id="jr-n6Z9DIesCHv_oQTnh-1588" value="" style="endArrow=none;dashed=1;html=1;rounded=0;" parent="1" edge="1">
          <mxGeometry width="50" height="50" relative="1" as="geometry">
            <mxPoint x="-1280" y="380" as="sourcePoint" />
            <mxPoint x="-1261.25" y="380" as="targetPoint" />
          </mxGeometry>
        </mxCell>
        <mxCell id="jr-n6Z9DIesCHv_oQTnh-1589" value="&lt;a style=&quot;box-sizing: border-box; background-color: rgb(255, 255, 255); text-decoration-line: none; font-family: -apple-system, BlinkMacSystemFont, &amp;quot;Segoe UI&amp;quot;, &amp;quot;Noto Sans&amp;quot;, Helvetica, Arial, sans-serif, &amp;quot;Apple Color Emoji&amp;quot;, &amp;quot;Segoe UI Emoji&amp;quot;; text-align: left; text-wrap-mode: nowrap;&quot; href=&quot;https://github.com/PetarS96/ML_Theory/tree/master/ML_Models/Supervised%20Learning/Regression%20models/Random_Forest_Regressor&quot; class=&quot;Link--primary&quot; aria-label=&quot;Random_Forest_Regressor, (Directory)&quot; title=&quot;Random_Forest_Regressor&quot;&gt;&lt;font style=&quot;font-size: 6px;&quot;&gt;Random_Forest_Regressor&lt;/font&gt;&lt;/a&gt;" style="text;html=1;align=center;verticalAlign=middle;whiteSpace=wrap;rounded=0;" parent="1" vertex="1">
          <mxGeometry x="-1261.25" y="370" width="80" height="20" as="geometry" />
        </mxCell>
        <mxCell id="jr-n6Z9DIesCHv_oQTnh-1590" value="" style="endArrow=none;dashed=1;html=1;rounded=0;" parent="1" edge="1">
          <mxGeometry width="50" height="50" relative="1" as="geometry">
            <mxPoint x="-1280" y="400" as="sourcePoint" />
            <mxPoint x="-1260" y="400" as="targetPoint" />
          </mxGeometry>
        </mxCell>
        <mxCell id="jr-n6Z9DIesCHv_oQTnh-1591" value="&lt;a style=&quot;box-sizing: border-box; background-color: rgb(255, 255, 255); text-decoration-line: none; font-family: -apple-system, BlinkMacSystemFont, &amp;quot;Segoe UI&amp;quot;, &amp;quot;Noto Sans&amp;quot;, Helvetica, Arial, sans-serif, &amp;quot;Apple Color Emoji&amp;quot;, &amp;quot;Segoe UI Emoji&amp;quot;; text-align: left; text-wrap-mode: nowrap;&quot; href=&quot;https://github.com/PetarS96/ML_Theory/tree/master/ML_Models/Supervised%20Learning/Regression%20models/Ridge_regression&quot; class=&quot;Link--primary&quot; aria-label=&quot;Ridge_regression, (Directory)&quot; title=&quot;Ridge_regression&quot;&gt;&lt;font style=&quot;font-size: 6px;&quot;&gt;Ridge_regression&lt;/font&gt;&lt;/a&gt;" style="text;html=1;align=center;verticalAlign=middle;whiteSpace=wrap;rounded=0;" parent="1" vertex="1">
          <mxGeometry x="-1260" y="390" width="50" height="20" as="geometry" />
        </mxCell>
        <mxCell id="jr-n6Z9DIesCHv_oQTnh-1592" value="" style="endArrow=none;dashed=1;html=1;rounded=0;" parent="1" edge="1">
          <mxGeometry width="50" height="50" relative="1" as="geometry">
            <mxPoint x="-1280" y="420" as="sourcePoint" />
            <mxPoint x="-1260" y="420" as="targetPoint" />
          </mxGeometry>
        </mxCell>
        <mxCell id="jr-n6Z9DIesCHv_oQTnh-1593" value="&lt;a style=&quot;box-sizing: border-box; background-color: rgb(255, 255, 255); text-decoration-line: none; font-family: -apple-system, BlinkMacSystemFont, &amp;quot;Segoe UI&amp;quot;, &amp;quot;Noto Sans&amp;quot;, Helvetica, Arial, sans-serif, &amp;quot;Apple Color Emoji&amp;quot;, &amp;quot;Segoe UI Emoji&amp;quot;; text-align: left; text-wrap-mode: nowrap;&quot; href=&quot;https://github.com/PetarS96/ML_Theory/tree/master/ML_Models/Supervised%20Learning/Regression%20models/SupportVectorRegression_SVR&quot; class=&quot;Link--primary&quot; aria-label=&quot;SupportVectorRegression_SVR, (Directory)&quot; title=&quot;SupportVectorRegression_SVR&quot;&gt;&lt;font style=&quot;font-size: 6px;&quot;&gt;SupportVectorRegression_SVR&lt;/font&gt;&lt;/a&gt;" style="text;html=1;align=center;verticalAlign=middle;whiteSpace=wrap;rounded=0;" parent="1" vertex="1">
          <mxGeometry x="-1260" y="410" width="90" height="20" as="geometry" />
        </mxCell>
        <mxCell id="jr-n6Z9DIesCHv_oQTnh-1594" value="" style="endArrow=none;dashed=1;html=1;rounded=0;" parent="1" edge="1">
          <mxGeometry width="50" height="50" relative="1" as="geometry">
            <mxPoint x="-1280" y="440" as="sourcePoint" />
            <mxPoint x="-1260" y="440" as="targetPoint" />
          </mxGeometry>
        </mxCell>
        <mxCell id="jr-n6Z9DIesCHv_oQTnh-1595" value="&lt;a style=&quot;box-sizing: border-box; background-color: rgb(255, 255, 255); text-decoration-line: none; font-family: -apple-system, BlinkMacSystemFont, &amp;quot;Segoe UI&amp;quot;, &amp;quot;Noto Sans&amp;quot;, Helvetica, Arial, sans-serif, &amp;quot;Apple Color Emoji&amp;quot;, &amp;quot;Segoe UI Emoji&amp;quot;; text-align: left; text-wrap-mode: nowrap;&quot; href=&quot;https://github.com/PetarS96/ML_Theory/tree/master/ML_Models/Supervised%20Learning/Regression%20models/XGBoost_regressor&quot; class=&quot;Link--primary&quot; aria-label=&quot;XGBoost_regressor, (Directory)&quot; title=&quot;XGBoost_regressor&quot;&gt;&lt;font style=&quot;font-size: 6px;&quot;&gt;XGBoost_regressor&lt;/font&gt;&lt;/a&gt;" style="text;html=1;align=center;verticalAlign=middle;whiteSpace=wrap;rounded=0;" parent="1" vertex="1">
          <mxGeometry x="-1260" y="430" width="70" height="20" as="geometry" />
        </mxCell>
        <mxCell id="jr-n6Z9DIesCHv_oQTnh-1597" value="" style="endArrow=none;dashed=1;html=1;rounded=0;" parent="1" edge="1">
          <mxGeometry width="50" height="50" relative="1" as="geometry">
            <mxPoint x="-1320" y="180" as="sourcePoint" />
            <mxPoint x="-1300" y="174.81" as="targetPoint" />
            <Array as="points">
              <mxPoint x="-1320" y="180" />
              <mxPoint x="-1310" y="175" />
            </Array>
          </mxGeometry>
        </mxCell>
        <mxCell id="jr-n6Z9DIesCHv_oQTnh-1599" value="" style="endArrow=none;dashed=1;html=1;rounded=0;" parent="1" edge="1">
          <mxGeometry width="50" height="50" relative="1" as="geometry">
            <mxPoint x="-1380" y="190" as="sourcePoint" />
            <mxPoint x="-1380" y="390" as="targetPoint" />
          </mxGeometry>
        </mxCell>
        <mxCell id="jr-n6Z9DIesCHv_oQTnh-1600" value="" style="endArrow=none;dashed=1;html=1;rounded=0;" parent="1" edge="1">
          <mxGeometry width="50" height="50" relative="1" as="geometry">
            <mxPoint x="-1380" y="199.94" as="sourcePoint" />
            <mxPoint x="-1360" y="199.94" as="targetPoint" />
          </mxGeometry>
        </mxCell>
        <mxCell id="jr-n6Z9DIesCHv_oQTnh-1601" value="&lt;font style=&quot;font-size: 6px;&quot;&gt;Logistic Regression&lt;/font&gt;" style="text;html=1;align=center;verticalAlign=middle;whiteSpace=wrap;rounded=0;" parent="1" vertex="1">
          <mxGeometry x="-1360" y="190" width="60" height="20" as="geometry" />
        </mxCell>
        <mxCell id="jr-n6Z9DIesCHv_oQTnh-1602" value="" style="endArrow=none;dashed=1;html=1;rounded=0;" parent="1" edge="1">
          <mxGeometry width="50" height="50" relative="1" as="geometry">
            <mxPoint x="-1380" y="219.94" as="sourcePoint" />
            <mxPoint x="-1360" y="219.94" as="targetPoint" />
          </mxGeometry>
        </mxCell>
        <mxCell id="jr-n6Z9DIesCHv_oQTnh-1603" value="&lt;font style=&quot;font-size: 6px;&quot;&gt;k-Nearest Neighbors&lt;/font&gt;" style="text;html=1;align=center;verticalAlign=middle;whiteSpace=wrap;rounded=0;" parent="1" vertex="1">
          <mxGeometry x="-1360" y="210" width="60" height="20" as="geometry" />
        </mxCell>
        <mxCell id="jr-n6Z9DIesCHv_oQTnh-1604" value="" style="endArrow=none;dashed=1;html=1;rounded=0;" parent="1" edge="1">
          <mxGeometry width="50" height="50" relative="1" as="geometry">
            <mxPoint x="-1380" y="239.94" as="sourcePoint" />
            <mxPoint x="-1360" y="239.94" as="targetPoint" />
          </mxGeometry>
        </mxCell>
        <mxCell id="jr-n6Z9DIesCHv_oQTnh-1605" value="&lt;font style=&quot;font-size: 6px;&quot;&gt;Decision Trees&lt;/font&gt;" style="text;html=1;align=center;verticalAlign=middle;whiteSpace=wrap;rounded=0;" parent="1" vertex="1">
          <mxGeometry x="-1360" y="230" width="50" height="20" as="geometry" />
        </mxCell>
        <mxCell id="jr-n6Z9DIesCHv_oQTnh-1606" value="" style="endArrow=none;dashed=1;html=1;rounded=0;" parent="1" edge="1">
          <mxGeometry width="50" height="50" relative="1" as="geometry">
            <mxPoint x="-1380" y="259.94" as="sourcePoint" />
            <mxPoint x="-1360" y="259.94" as="targetPoint" />
          </mxGeometry>
        </mxCell>
        <mxCell id="jr-n6Z9DIesCHv_oQTnh-1607" value="&lt;font style=&quot;font-size: 6px;&quot;&gt;Random Forest&lt;/font&gt;" style="text;html=1;align=center;verticalAlign=middle;whiteSpace=wrap;rounded=0;" parent="1" vertex="1">
          <mxGeometry x="-1360" y="250" width="50" height="20" as="geometry" />
        </mxCell>
        <mxCell id="jr-n6Z9DIesCHv_oQTnh-1608" value="" style="endArrow=none;dashed=1;html=1;rounded=0;" parent="1" edge="1">
          <mxGeometry width="50" height="50" relative="1" as="geometry">
            <mxPoint x="-1380" y="279.94" as="sourcePoint" />
            <mxPoint x="-1360" y="279.94" as="targetPoint" />
          </mxGeometry>
        </mxCell>
        <mxCell id="jr-n6Z9DIesCHv_oQTnh-1609" value="&lt;font style=&quot;font-size: 6px;&quot;&gt;Support Vector Machine&amp;nbsp;&lt;/font&gt;" style="text;html=1;align=center;verticalAlign=middle;whiteSpace=wrap;rounded=0;" parent="1" vertex="1">
          <mxGeometry x="-1360" y="270" width="70" height="20" as="geometry" />
        </mxCell>
        <mxCell id="jr-n6Z9DIesCHv_oQTnh-1610" value="" style="endArrow=none;dashed=1;html=1;rounded=0;" parent="1" edge="1">
          <mxGeometry width="50" height="50" relative="1" as="geometry">
            <mxPoint x="-1380" y="299.94" as="sourcePoint" />
            <mxPoint x="-1360" y="299.94" as="targetPoint" />
          </mxGeometry>
        </mxCell>
        <mxCell id="jr-n6Z9DIesCHv_oQTnh-1611" value="&lt;font style=&quot;font-size: 6px;&quot;&gt;Naive Bayes&lt;/font&gt;" style="text;html=1;align=center;verticalAlign=middle;whiteSpace=wrap;rounded=0;" parent="1" vertex="1">
          <mxGeometry x="-1360" y="290" width="50" height="20" as="geometry" />
        </mxCell>
        <mxCell id="jr-n6Z9DIesCHv_oQTnh-1612" value="" style="endArrow=none;dashed=1;html=1;rounded=0;" parent="1" edge="1">
          <mxGeometry width="50" height="50" relative="1" as="geometry">
            <mxPoint x="-1380" y="319.94" as="sourcePoint" />
            <mxPoint x="-1360" y="319.94" as="targetPoint" />
          </mxGeometry>
        </mxCell>
        <mxCell id="jr-n6Z9DIesCHv_oQTnh-1613" value="&lt;font style=&quot;font-size: 6px;&quot;&gt;Gradient Boosting&lt;/font&gt;" style="text;html=1;align=center;verticalAlign=middle;whiteSpace=wrap;rounded=0;" parent="1" vertex="1">
          <mxGeometry x="-1360" y="310" width="60" height="20" as="geometry" />
        </mxCell>
        <mxCell id="jr-n6Z9DIesCHv_oQTnh-1614" value="" style="endArrow=none;dashed=1;html=1;rounded=0;" parent="1" edge="1">
          <mxGeometry width="50" height="50" relative="1" as="geometry">
            <mxPoint x="-1380" y="339.94" as="sourcePoint" />
            <mxPoint x="-1360" y="339.94" as="targetPoint" />
          </mxGeometry>
        </mxCell>
        <mxCell id="jr-n6Z9DIesCHv_oQTnh-1615" value="&lt;font style=&quot;font-size: 6px;&quot;&gt;XGBoost&lt;/font&gt;" style="text;html=1;align=center;verticalAlign=middle;whiteSpace=wrap;rounded=0;" parent="1" vertex="1">
          <mxGeometry x="-1360" y="330" width="30" height="20" as="geometry" />
        </mxCell>
        <mxCell id="jr-n6Z9DIesCHv_oQTnh-1616" value="" style="endArrow=none;dashed=1;html=1;rounded=0;" parent="1" edge="1">
          <mxGeometry width="50" height="50" relative="1" as="geometry">
            <mxPoint x="-1380" y="359.94" as="sourcePoint" />
            <mxPoint x="-1360" y="359.94" as="targetPoint" />
          </mxGeometry>
        </mxCell>
        <mxCell id="jr-n6Z9DIesCHv_oQTnh-1617" value="&lt;font style=&quot;font-size: 6px;&quot;&gt;LightGBM&lt;/font&gt;" style="text;html=1;align=center;verticalAlign=middle;whiteSpace=wrap;rounded=0;" parent="1" vertex="1">
          <mxGeometry x="-1360" y="350" width="30" height="20" as="geometry" />
        </mxCell>
        <mxCell id="jr-n6Z9DIesCHv_oQTnh-1619" value="" style="endArrow=none;dashed=1;html=1;rounded=0;" parent="1" edge="1">
          <mxGeometry width="50" height="50" relative="1" as="geometry">
            <mxPoint x="-1380" y="379.94" as="sourcePoint" />
            <mxPoint x="-1360" y="379.94" as="targetPoint" />
          </mxGeometry>
        </mxCell>
        <mxCell id="jr-n6Z9DIesCHv_oQTnh-1620" value="&lt;font style=&quot;font-size: 6px;&quot;&gt;Neural Networks (ANN)&lt;/font&gt;" style="text;html=1;align=center;verticalAlign=middle;whiteSpace=wrap;rounded=0;" parent="1" vertex="1">
          <mxGeometry x="-1360" y="370" width="70" height="20" as="geometry" />
        </mxCell>
        <mxCell id="jr-n6Z9DIesCHv_oQTnh-1622" value="&lt;font style=&quot;font-size: 10px;&quot;&gt;Clustering&lt;/font&gt;" style="rounded=0;whiteSpace=wrap;html=1;" parent="1" vertex="1">
          <mxGeometry x="-1100" y="160" width="70" height="30" as="geometry" />
        </mxCell>
        <mxCell id="jr-n6Z9DIesCHv_oQTnh-1623" value="&lt;font style=&quot;font-size: 9px;&quot;&gt;Dimensionality Reduction:&lt;/font&gt;" style="rounded=0;whiteSpace=wrap;html=1;" parent="1" vertex="1">
          <mxGeometry x="-980" y="160" width="110" height="30" as="geometry" />
        </mxCell>
        <mxCell id="jr-n6Z9DIesCHv_oQTnh-1625" style="edgeStyle=orthogonalEdgeStyle;rounded=0;orthogonalLoop=1;jettySize=auto;html=1;exitX=0.5;exitY=1;exitDx=0;exitDy=0;" parent="1" source="jr-n6Z9DIesCHv_oQTnh-1548" target="jr-n6Z9DIesCHv_oQTnh-1548" edge="1">
          <mxGeometry relative="1" as="geometry" />
        </mxCell>
        <mxCell id="jr-n6Z9DIesCHv_oQTnh-1626" value="&lt;font style=&quot;font-size: 10px;&quot;&gt;Anomaly Detection&lt;/font&gt;" style="rounded=0;whiteSpace=wrap;html=1;" parent="1" vertex="1">
          <mxGeometry x="-820" y="160" width="90" height="30" as="geometry" />
        </mxCell>
        <mxCell id="jr-n6Z9DIesCHv_oQTnh-1628" value="" style="endArrow=none;dashed=1;html=1;rounded=0;" parent="1" edge="1">
          <mxGeometry width="50" height="50" relative="1" as="geometry">
            <mxPoint x="-1090" y="190" as="sourcePoint" />
            <mxPoint x="-1090" y="420" as="targetPoint" />
          </mxGeometry>
        </mxCell>
        <mxCell id="jr-n6Z9DIesCHv_oQTnh-1629" value="" style="endArrow=none;dashed=1;html=1;rounded=0;" parent="1" edge="1">
          <mxGeometry width="50" height="50" relative="1" as="geometry">
            <mxPoint x="-1090" y="199.94" as="sourcePoint" />
            <mxPoint x="-1070" y="199.94" as="targetPoint" />
          </mxGeometry>
        </mxCell>
        <mxCell id="jr-n6Z9DIesCHv_oQTnh-1630" value="&lt;font style=&quot;font-size: 6px;&quot;&gt;K-Means Clustering&lt;/font&gt;" style="text;html=1;align=center;verticalAlign=middle;whiteSpace=wrap;rounded=0;" parent="1" vertex="1">
          <mxGeometry x="-1070" y="190" width="60" height="20" as="geometry" />
        </mxCell>
        <mxCell id="jr-n6Z9DIesCHv_oQTnh-1631" value="" style="endArrow=none;dashed=1;html=1;rounded=0;" parent="1" edge="1">
          <mxGeometry width="50" height="50" relative="1" as="geometry">
            <mxPoint x="-1090" y="219.94" as="sourcePoint" />
            <mxPoint x="-1070" y="219.94" as="targetPoint" />
          </mxGeometry>
        </mxCell>
        <mxCell id="jr-n6Z9DIesCHv_oQTnh-1632" value="&lt;font style=&quot;font-size: 6px;&quot;&gt;Hierarchical Clustering&lt;/font&gt;" style="text;html=1;align=center;verticalAlign=middle;whiteSpace=wrap;rounded=0;" parent="1" vertex="1">
          <mxGeometry x="-1070" y="210" width="70" height="20" as="geometry" />
        </mxCell>
        <mxCell id="jr-n6Z9DIesCHv_oQTnh-1633" value="" style="endArrow=none;dashed=1;html=1;rounded=0;" parent="1" edge="1">
          <mxGeometry width="50" height="50" relative="1" as="geometry">
            <mxPoint x="-1090" y="239.94" as="sourcePoint" />
            <mxPoint x="-1070" y="239.94" as="targetPoint" />
          </mxGeometry>
        </mxCell>
        <mxCell id="jr-n6Z9DIesCHv_oQTnh-1634" value="&lt;font style=&quot;font-size: 6px;&quot;&gt;DBSCAN &lt;/font&gt;" style="text;html=1;align=center;verticalAlign=middle;whiteSpace=wrap;rounded=0;" parent="1" vertex="1">
          <mxGeometry x="-1070" y="230" width="40" height="20" as="geometry" />
        </mxCell>
        <mxCell id="jr-n6Z9DIesCHv_oQTnh-1635" value="" style="endArrow=none;dashed=1;html=1;rounded=0;" parent="1" edge="1">
          <mxGeometry width="50" height="50" relative="1" as="geometry">
            <mxPoint x="-1090" y="259.94" as="sourcePoint" />
            <mxPoint x="-1070" y="259.94" as="targetPoint" />
          </mxGeometry>
        </mxCell>
        <mxCell id="jr-n6Z9DIesCHv_oQTnh-1636" value="&lt;font style=&quot;font-size: 6px;&quot;&gt;Gaussian Mixture Model&amp;nbsp;&lt;/font&gt;" style="text;html=1;align=center;verticalAlign=middle;whiteSpace=wrap;rounded=0;" parent="1" vertex="1">
          <mxGeometry x="-1070" y="250" width="70" height="20" as="geometry" />
        </mxCell>
        <mxCell id="jr-n6Z9DIesCHv_oQTnh-1637" value="" style="endArrow=none;dashed=1;html=1;rounded=0;" parent="1" edge="1">
          <mxGeometry width="50" height="50" relative="1" as="geometry">
            <mxPoint x="-1090" y="279.94" as="sourcePoint" />
            <mxPoint x="-1070" y="279.94" as="targetPoint" />
          </mxGeometry>
        </mxCell>
        <mxCell id="jr-n6Z9DIesCHv_oQTnh-1638" value="&lt;font style=&quot;font-size: 6px;&quot;&gt;Mean Shift Clustering&lt;/font&gt;" style="text;html=1;align=center;verticalAlign=middle;whiteSpace=wrap;rounded=0;" parent="1" vertex="1">
          <mxGeometry x="-1070" y="270" width="70" height="20" as="geometry" />
        </mxCell>
        <mxCell id="jr-n6Z9DIesCHv_oQTnh-1639" value="" style="endArrow=none;dashed=1;html=1;rounded=0;" parent="1" edge="1">
          <mxGeometry width="50" height="50" relative="1" as="geometry">
            <mxPoint x="-1090" y="299.94" as="sourcePoint" />
            <mxPoint x="-1070" y="299.94" as="targetPoint" />
          </mxGeometry>
        </mxCell>
        <mxCell id="jr-n6Z9DIesCHv_oQTnh-1640" value="&lt;font style=&quot;font-size: 6px;&quot;&gt;Spectral Clustering&lt;/font&gt;" style="text;html=1;align=center;verticalAlign=middle;whiteSpace=wrap;rounded=0;" parent="1" vertex="1">
          <mxGeometry x="-1070" y="290" width="60" height="20" as="geometry" />
        </mxCell>
        <mxCell id="jr-n6Z9DIesCHv_oQTnh-1641" value="" style="endArrow=none;dashed=1;html=1;rounded=0;" parent="1" edge="1">
          <mxGeometry width="50" height="50" relative="1" as="geometry">
            <mxPoint x="-1090" y="319.94" as="sourcePoint" />
            <mxPoint x="-1070" y="319.94" as="targetPoint" />
          </mxGeometry>
        </mxCell>
        <mxCell id="jr-n6Z9DIesCHv_oQTnh-1642" value="&lt;font style=&quot;font-size: 6px;&quot;&gt;//////&lt;/font&gt;" style="text;html=1;align=center;verticalAlign=middle;whiteSpace=wrap;rounded=0;" parent="1" vertex="1">
          <mxGeometry x="-1070" y="310" width="60" height="20" as="geometry" />
        </mxCell>
        <mxCell id="jr-n6Z9DIesCHv_oQTnh-1643" value="" style="endArrow=none;dashed=1;html=1;rounded=0;" parent="1" edge="1">
          <mxGeometry width="50" height="50" relative="1" as="geometry">
            <mxPoint x="-1090" y="339.94" as="sourcePoint" />
            <mxPoint x="-1070" y="339.94" as="targetPoint" />
          </mxGeometry>
        </mxCell>
        <mxCell id="jr-n6Z9DIesCHv_oQTnh-1644" value="&lt;font style=&quot;font-size: 6px;&quot;&gt;Affinity Propagation&lt;/font&gt;" style="text;html=1;align=center;verticalAlign=middle;whiteSpace=wrap;rounded=0;" parent="1" vertex="1">
          <mxGeometry x="-1070" y="330" width="60" height="20" as="geometry" />
        </mxCell>
        <mxCell id="jr-n6Z9DIesCHv_oQTnh-1645" value="" style="endArrow=none;dashed=1;html=1;rounded=0;" parent="1" edge="1">
          <mxGeometry width="50" height="50" relative="1" as="geometry">
            <mxPoint x="-1090" y="359.94" as="sourcePoint" />
            <mxPoint x="-1070" y="359.94" as="targetPoint" />
          </mxGeometry>
        </mxCell>
        <mxCell id="jr-n6Z9DIesCHv_oQTnh-1646" value="&lt;font style=&quot;font-size: 6px;&quot;&gt;Self-Organizing Maps (SOM)&lt;/font&gt;" style="text;html=1;align=center;verticalAlign=middle;whiteSpace=wrap;rounded=0;" parent="1" vertex="1">
          <mxGeometry x="-1070" y="350" width="90" height="20" as="geometry" />
        </mxCell>
        <mxCell id="jr-n6Z9DIesCHv_oQTnh-1647" value="" style="endArrow=none;dashed=1;html=1;rounded=0;" parent="1" edge="1">
          <mxGeometry width="50" height="50" relative="1" as="geometry">
            <mxPoint x="-1090" y="379.94" as="sourcePoint" />
            <mxPoint x="-1070" y="379.94" as="targetPoint" />
          </mxGeometry>
        </mxCell>
        <mxCell id="jr-n6Z9DIesCHv_oQTnh-1648" value="&lt;font style=&quot;font-size: 6px;&quot;&gt;OPTICS&amp;nbsp;&lt;/font&gt;" style="text;html=1;align=center;verticalAlign=middle;whiteSpace=wrap;rounded=0;" parent="1" vertex="1">
          <mxGeometry x="-1070" y="370" width="40" height="20" as="geometry" />
        </mxCell>
        <mxCell id="jr-n6Z9DIesCHv_oQTnh-1651" value="" style="endArrow=none;dashed=1;html=1;rounded=0;" parent="1" edge="1">
          <mxGeometry width="50" height="50" relative="1" as="geometry">
            <mxPoint x="-1090" y="399.94" as="sourcePoint" />
            <mxPoint x="-1070" y="399.94" as="targetPoint" />
          </mxGeometry>
        </mxCell>
        <mxCell id="jr-n6Z9DIesCHv_oQTnh-1652" value="&lt;font style=&quot;font-size: 6px;&quot;&gt;BIRCH&lt;/font&gt;" style="text;html=1;align=center;verticalAlign=middle;whiteSpace=wrap;rounded=0;" parent="1" vertex="1">
          <mxGeometry x="-1070" y="390" width="30" height="20" as="geometry" />
        </mxCell>
        <mxCell id="jr-n6Z9DIesCHv_oQTnh-1653" value="" style="endArrow=none;dashed=1;html=1;rounded=0;" parent="1" edge="1">
          <mxGeometry width="50" height="50" relative="1" as="geometry">
            <mxPoint x="-970" y="190" as="sourcePoint" />
            <mxPoint x="-970" y="410" as="targetPoint" />
          </mxGeometry>
        </mxCell>
        <mxCell id="jr-n6Z9DIesCHv_oQTnh-1654" value="" style="endArrow=none;dashed=1;html=1;rounded=0;" parent="1" edge="1">
          <mxGeometry width="50" height="50" relative="1" as="geometry">
            <mxPoint x="-970" y="199.94" as="sourcePoint" />
            <mxPoint x="-950" y="199.94" as="targetPoint" />
          </mxGeometry>
        </mxCell>
        <mxCell id="jr-n6Z9DIesCHv_oQTnh-1655" value="&lt;font style=&quot;font-size: 6px;&quot;&gt;Principal Component Analysis (PCA)&lt;/font&gt;" style="text;html=1;align=center;verticalAlign=middle;whiteSpace=wrap;rounded=0;" parent="1" vertex="1">
          <mxGeometry x="-950" y="190" width="100" height="20" as="geometry" />
        </mxCell>
        <mxCell id="jr-n6Z9DIesCHv_oQTnh-1656" value="" style="endArrow=none;dashed=1;html=1;rounded=0;" parent="1" edge="1">
          <mxGeometry width="50" height="50" relative="1" as="geometry">
            <mxPoint x="-970" y="219.94" as="sourcePoint" />
            <mxPoint x="-950" y="219.94" as="targetPoint" />
          </mxGeometry>
        </mxCell>
        <mxCell id="jr-n6Z9DIesCHv_oQTnh-1657" value="&lt;font style=&quot;font-size: 6px;&quot;&gt;Independent Component Analysis (ICA)&lt;/font&gt;" style="text;html=1;align=center;verticalAlign=middle;whiteSpace=wrap;rounded=0;" parent="1" vertex="1">
          <mxGeometry x="-950" y="210" width="110" height="20" as="geometry" />
        </mxCell>
        <mxCell id="jr-n6Z9DIesCHv_oQTnh-1658" value="" style="endArrow=none;dashed=1;html=1;rounded=0;" parent="1" edge="1">
          <mxGeometry width="50" height="50" relative="1" as="geometry">
            <mxPoint x="-970" y="244.75" as="sourcePoint" />
            <mxPoint x="-950" y="244.75" as="targetPoint" />
            <Array as="points">
              <mxPoint x="-970" y="244.81" />
            </Array>
          </mxGeometry>
        </mxCell>
        <mxCell id="jr-n6Z9DIesCHv_oQTnh-1659" value="&lt;font style=&quot;font-size: 6px;&quot;&gt;t-Distributed Stochastic Neighbor Embedding&amp;nbsp; &amp;nbsp;(t-SNE) &lt;/font&gt;" style="text;html=1;align=center;verticalAlign=middle;whiteSpace=wrap;rounded=0;" parent="1" vertex="1">
          <mxGeometry x="-950" y="230" width="130" height="30" as="geometry" />
        </mxCell>
        <mxCell id="jr-n6Z9DIesCHv_oQTnh-1660" value="" style="endArrow=none;dashed=1;html=1;rounded=0;" parent="1" edge="1">
          <mxGeometry width="50" height="50" relative="1" as="geometry">
            <mxPoint x="-970" y="269.94" as="sourcePoint" />
            <mxPoint x="-950" y="269.94" as="targetPoint" />
          </mxGeometry>
        </mxCell>
        <mxCell id="jr-n6Z9DIesCHv_oQTnh-1661" value="&lt;font style=&quot;font-size: 6px;&quot;&gt;Autoencoders&lt;/font&gt;" style="text;html=1;align=center;verticalAlign=middle;whiteSpace=wrap;rounded=0;" parent="1" vertex="1">
          <mxGeometry x="-950" y="260" width="50" height="20" as="geometry" />
        </mxCell>
        <mxCell id="jr-n6Z9DIesCHv_oQTnh-1662" value="" style="endArrow=none;dashed=1;html=1;rounded=0;" parent="1" edge="1">
          <mxGeometry width="50" height="50" relative="1" as="geometry">
            <mxPoint x="-970" y="289.94" as="sourcePoint" />
            <mxPoint x="-950" y="289.94" as="targetPoint" />
          </mxGeometry>
        </mxCell>
        <mxCell id="jr-n6Z9DIesCHv_oQTnh-1663" value="&lt;font style=&quot;font-size: 6px;&quot;&gt;Linear Discriminant Analysis (LDA)&lt;/font&gt;" style="text;html=1;align=center;verticalAlign=middle;whiteSpace=wrap;rounded=0;" parent="1" vertex="1">
          <mxGeometry x="-950" y="280" width="100" height="20" as="geometry" />
        </mxCell>
        <mxCell id="jr-n6Z9DIesCHv_oQTnh-1664" value="" style="endArrow=none;dashed=1;html=1;rounded=0;" parent="1" edge="1">
          <mxGeometry width="50" height="50" relative="1" as="geometry">
            <mxPoint x="-970" y="309.94" as="sourcePoint" />
            <mxPoint x="-950" y="309.94" as="targetPoint" />
          </mxGeometry>
        </mxCell>
        <mxCell id="jr-n6Z9DIesCHv_oQTnh-1665" value="&lt;font style=&quot;font-size: 6px;&quot;&gt;Factor Analysis&lt;/font&gt;" style="text;html=1;align=center;verticalAlign=middle;whiteSpace=wrap;rounded=0;" parent="1" vertex="1">
          <mxGeometry x="-950" y="300" width="50" height="20" as="geometry" />
        </mxCell>
        <mxCell id="jr-n6Z9DIesCHv_oQTnh-1666" value="" style="endArrow=none;dashed=1;html=1;rounded=0;" parent="1" edge="1">
          <mxGeometry width="50" height="50" relative="1" as="geometry">
            <mxPoint x="-970" y="329.94" as="sourcePoint" />
            <mxPoint x="-950" y="329.94" as="targetPoint" />
          </mxGeometry>
        </mxCell>
        <mxCell id="jr-n6Z9DIesCHv_oQTnh-1667" value="&lt;font style=&quot;font-size: 6px;&quot;&gt;Non-negative Matrix Factorization (NMF)&lt;/font&gt;" style="text;html=1;align=center;verticalAlign=middle;whiteSpace=wrap;rounded=0;" parent="1" vertex="1">
          <mxGeometry x="-950" y="320" width="120" height="20" as="geometry" />
        </mxCell>
        <mxCell id="jr-n6Z9DIesCHv_oQTnh-1668" value="" style="endArrow=none;dashed=1;html=1;rounded=0;" parent="1" edge="1">
          <mxGeometry width="50" height="50" relative="1" as="geometry">
            <mxPoint x="-970" y="349.94" as="sourcePoint" />
            <mxPoint x="-950" y="349.94" as="targetPoint" />
          </mxGeometry>
        </mxCell>
        <mxCell id="jr-n6Z9DIesCHv_oQTnh-1669" value="&lt;font style=&quot;font-size: 6px;&quot;&gt;Isomap&lt;/font&gt;" style="text;html=1;align=center;verticalAlign=middle;whiteSpace=wrap;rounded=0;" parent="1" vertex="1">
          <mxGeometry x="-950" y="340" width="30" height="20" as="geometry" />
        </mxCell>
        <mxCell id="jr-n6Z9DIesCHv_oQTnh-1670" value="" style="endArrow=none;dashed=1;html=1;rounded=0;" parent="1" edge="1">
          <mxGeometry width="50" height="50" relative="1" as="geometry">
            <mxPoint x="-970" y="369.94" as="sourcePoint" />
            <mxPoint x="-950" y="369.94" as="targetPoint" />
          </mxGeometry>
        </mxCell>
        <mxCell id="jr-n6Z9DIesCHv_oQTnh-1671" value="&lt;font style=&quot;font-size: 6px;&quot;&gt;Locally Linear Embedding (LLE)&lt;/font&gt;" style="text;html=1;align=center;verticalAlign=middle;whiteSpace=wrap;rounded=0;" parent="1" vertex="1">
          <mxGeometry x="-950" y="360" width="90" height="20" as="geometry" />
        </mxCell>
        <mxCell id="jr-n6Z9DIesCHv_oQTnh-1672" value="" style="endArrow=none;dashed=1;html=1;rounded=0;" parent="1" edge="1">
          <mxGeometry width="50" height="50" relative="1" as="geometry">
            <mxPoint x="-970" y="389.94" as="sourcePoint" />
            <mxPoint x="-950" y="389.94" as="targetPoint" />
          </mxGeometry>
        </mxCell>
        <mxCell id="jr-n6Z9DIesCHv_oQTnh-1673" value="&lt;font style=&quot;font-size: 6px;&quot;&gt;Multidimensional Scaling (MDS)&lt;/font&gt;" style="text;html=1;align=center;verticalAlign=middle;whiteSpace=wrap;rounded=0;" parent="1" vertex="1">
          <mxGeometry x="-950" y="380" width="90" height="20" as="geometry" />
        </mxCell>
        <mxCell id="jr-n6Z9DIesCHv_oQTnh-1676" value="" style="endArrow=none;dashed=1;html=1;rounded=0;" parent="1" edge="1">
          <mxGeometry width="50" height="50" relative="1" as="geometry">
            <mxPoint x="-810" y="190" as="sourcePoint" />
            <mxPoint x="-810" y="380" as="targetPoint" />
          </mxGeometry>
        </mxCell>
        <mxCell id="jr-n6Z9DIesCHv_oQTnh-1677" value="" style="endArrow=none;dashed=1;html=1;rounded=0;" parent="1" edge="1">
          <mxGeometry width="50" height="50" relative="1" as="geometry">
            <mxPoint x="-810" y="199.94" as="sourcePoint" />
            <mxPoint x="-790" y="199.94" as="targetPoint" />
          </mxGeometry>
        </mxCell>
        <mxCell id="jr-n6Z9DIesCHv_oQTnh-1678" value="&lt;font style=&quot;font-size: 6px;&quot;&gt;Isolation Forest&lt;/font&gt;" style="text;html=1;align=center;verticalAlign=middle;whiteSpace=wrap;rounded=0;" parent="1" vertex="1">
          <mxGeometry x="-790" y="190" width="50" height="20" as="geometry" />
        </mxCell>
        <mxCell id="jr-n6Z9DIesCHv_oQTnh-1679" value="" style="endArrow=none;dashed=1;html=1;rounded=0;" parent="1" edge="1">
          <mxGeometry width="50" height="50" relative="1" as="geometry">
            <mxPoint x="-810" y="219.94" as="sourcePoint" />
            <mxPoint x="-790" y="219.94" as="targetPoint" />
          </mxGeometry>
        </mxCell>
        <mxCell id="jr-n6Z9DIesCHv_oQTnh-1680" value="&lt;font style=&quot;font-size: 6px;&quot;&gt;One-Class SVM&lt;/font&gt;" style="text;html=1;align=center;verticalAlign=middle;whiteSpace=wrap;rounded=0;" parent="1" vertex="1">
          <mxGeometry x="-790" y="210" width="50" height="20" as="geometry" />
        </mxCell>
        <mxCell id="jr-n6Z9DIesCHv_oQTnh-1681" value="" style="endArrow=none;dashed=1;html=1;rounded=0;" parent="1" edge="1">
          <mxGeometry width="50" height="50" relative="1" as="geometry">
            <mxPoint x="-810" y="239.94" as="sourcePoint" />
            <mxPoint x="-790" y="239.94" as="targetPoint" />
          </mxGeometry>
        </mxCell>
        <mxCell id="jr-n6Z9DIesCHv_oQTnh-1683" value="" style="endArrow=none;dashed=1;html=1;rounded=0;" parent="1" edge="1">
          <mxGeometry width="50" height="50" relative="1" as="geometry">
            <mxPoint x="-810" y="259.94" as="sourcePoint" />
            <mxPoint x="-790" y="259.94" as="targetPoint" />
          </mxGeometry>
        </mxCell>
        <mxCell id="jr-n6Z9DIesCHv_oQTnh-1685" value="" style="endArrow=none;dashed=1;html=1;rounded=0;" parent="1" edge="1">
          <mxGeometry width="50" height="50" relative="1" as="geometry">
            <mxPoint x="-810" y="279.94" as="sourcePoint" />
            <mxPoint x="-790" y="279.94" as="targetPoint" />
          </mxGeometry>
        </mxCell>
        <mxCell id="jr-n6Z9DIesCHv_oQTnh-1687" value="" style="endArrow=none;dashed=1;html=1;rounded=0;" parent="1" edge="1">
          <mxGeometry width="50" height="50" relative="1" as="geometry">
            <mxPoint x="-810" y="299.94" as="sourcePoint" />
            <mxPoint x="-790" y="299.94" as="targetPoint" />
          </mxGeometry>
        </mxCell>
        <mxCell id="jr-n6Z9DIesCHv_oQTnh-1688" value="&lt;font style=&quot;font-size: 6px;&quot;&gt;LOF (Local Outlier Factor)&lt;/font&gt;" style="text;html=1;align=center;verticalAlign=middle;whiteSpace=wrap;rounded=0;" parent="1" vertex="1">
          <mxGeometry x="-790" y="290" width="80" height="20" as="geometry" />
        </mxCell>
        <mxCell id="jr-n6Z9DIesCHv_oQTnh-1689" value="" style="endArrow=none;dashed=1;html=1;rounded=0;" parent="1" edge="1">
          <mxGeometry width="50" height="50" relative="1" as="geometry">
            <mxPoint x="-810" y="319.94" as="sourcePoint" />
            <mxPoint x="-790" y="319.94" as="targetPoint" />
          </mxGeometry>
        </mxCell>
        <mxCell id="jr-n6Z9DIesCHv_oQTnh-1690" value="&lt;font style=&quot;font-size: 6px;&quot;&gt;Elliptic Envelope&lt;/font&gt;" style="text;html=1;align=center;verticalAlign=middle;whiteSpace=wrap;rounded=0;" parent="1" vertex="1">
          <mxGeometry x="-790" y="310" width="50" height="20" as="geometry" />
        </mxCell>
        <mxCell id="jr-n6Z9DIesCHv_oQTnh-1691" value="" style="endArrow=none;dashed=1;html=1;rounded=0;" parent="1" edge="1">
          <mxGeometry width="50" height="50" relative="1" as="geometry">
            <mxPoint x="-810" y="339.94" as="sourcePoint" />
            <mxPoint x="-790" y="339.94" as="targetPoint" />
          </mxGeometry>
        </mxCell>
        <mxCell id="jr-n6Z9DIesCHv_oQTnh-1692" value="&lt;font style=&quot;font-size: 6px;&quot;&gt;Gaussian Mixture Model (GMM)&lt;/font&gt;" style="text;html=1;align=center;verticalAlign=middle;whiteSpace=wrap;rounded=0;" parent="1" vertex="1">
          <mxGeometry x="-790" y="270" width="90" height="20" as="geometry" />
        </mxCell>
        <mxCell id="jr-n6Z9DIesCHv_oQTnh-1693" value="" style="endArrow=none;dashed=1;html=1;rounded=0;" parent="1" edge="1">
          <mxGeometry width="50" height="50" relative="1" as="geometry">
            <mxPoint x="-810" y="359.94" as="sourcePoint" />
            <mxPoint x="-790" y="359.94" as="targetPoint" />
          </mxGeometry>
        </mxCell>
        <mxCell id="jr-n6Z9DIesCHv_oQTnh-1694" value="&lt;font style=&quot;font-size: 6px;&quot;&gt;COF (Connectivity-Based Outlier Factor)&lt;/font&gt;" style="text;html=1;align=center;verticalAlign=middle;whiteSpace=wrap;rounded=0;" parent="1" vertex="1">
          <mxGeometry x="-790" y="250" width="120" height="20" as="geometry" />
        </mxCell>
        <mxCell id="jr-n6Z9DIesCHv_oQTnh-1695" value="" style="endArrow=none;dashed=1;html=1;rounded=0;" parent="1" edge="1">
          <mxGeometry width="50" height="50" relative="1" as="geometry">
            <mxPoint x="-810" y="379.94" as="sourcePoint" />
            <mxPoint x="-790" y="379.94" as="targetPoint" />
          </mxGeometry>
        </mxCell>
        <mxCell id="jr-n6Z9DIesCHv_oQTnh-1696" value="&lt;font style=&quot;font-size: 6px;&quot;&gt;Mahalanobis Distance&lt;/font&gt;" style="text;html=1;align=center;verticalAlign=middle;whiteSpace=wrap;rounded=0;" parent="1" vertex="1">
          <mxGeometry x="-785" y="230" width="70" height="20" as="geometry" />
        </mxCell>
        <mxCell id="jr-n6Z9DIesCHv_oQTnh-1700" value="" style="endArrow=none;dashed=1;html=1;rounded=0;" parent="1" edge="1">
          <mxGeometry width="50" height="50" relative="1" as="geometry">
            <mxPoint x="-570" y="140" as="sourcePoint" />
            <mxPoint x="-570" y="340" as="targetPoint" />
          </mxGeometry>
        </mxCell>
        <mxCell id="jr-n6Z9DIesCHv_oQTnh-1701" value="" style="endArrow=none;dashed=1;html=1;rounded=0;" parent="1" edge="1">
          <mxGeometry width="50" height="50" relative="1" as="geometry">
            <mxPoint x="-570" y="159.94" as="sourcePoint" />
            <mxPoint x="-550" y="159.94" as="targetPoint" />
          </mxGeometry>
        </mxCell>
        <mxCell id="jr-n6Z9DIesCHv_oQTnh-1702" value="&lt;font style=&quot;font-size: 6px;&quot;&gt;Q-Learning&lt;/font&gt;" style="text;html=1;align=center;verticalAlign=middle;whiteSpace=wrap;rounded=0;" parent="1" vertex="1">
          <mxGeometry x="-550" y="150" width="50" height="20" as="geometry" />
        </mxCell>
        <mxCell id="jr-n6Z9DIesCHv_oQTnh-1703" value="" style="endArrow=none;dashed=1;html=1;rounded=0;" parent="1" edge="1">
          <mxGeometry width="50" height="50" relative="1" as="geometry">
            <mxPoint x="-570" y="179.94" as="sourcePoint" />
            <mxPoint x="-550" y="179.94" as="targetPoint" />
          </mxGeometry>
        </mxCell>
        <mxCell id="jr-n6Z9DIesCHv_oQTnh-1704" value="&lt;font style=&quot;font-size: 6px;&quot;&gt;Deep Q-Network (DQN)&lt;/font&gt;" style="text;html=1;align=center;verticalAlign=middle;whiteSpace=wrap;rounded=0;" parent="1" vertex="1">
          <mxGeometry x="-550" y="170" width="70" height="20" as="geometry" />
        </mxCell>
        <mxCell id="jr-n6Z9DIesCHv_oQTnh-1705" value="" style="endArrow=none;dashed=1;html=1;rounded=0;" parent="1" edge="1">
          <mxGeometry width="50" height="50" relative="1" as="geometry">
            <mxPoint x="-570" y="199.94" as="sourcePoint" />
            <mxPoint x="-550" y="199.94" as="targetPoint" />
          </mxGeometry>
        </mxCell>
        <mxCell id="jr-n6Z9DIesCHv_oQTnh-1706" value="&lt;font style=&quot;font-size: 6px;&quot;&gt;Policy Gradient Methods &lt;/font&gt;" style="text;html=1;align=center;verticalAlign=middle;whiteSpace=wrap;rounded=0;" parent="1" vertex="1">
          <mxGeometry x="-550" y="190" width="70" height="20" as="geometry" />
        </mxCell>
        <mxCell id="jr-n6Z9DIesCHv_oQTnh-1707" value="" style="endArrow=none;dashed=1;html=1;rounded=0;" parent="1" edge="1">
          <mxGeometry width="50" height="50" relative="1" as="geometry">
            <mxPoint x="-570" y="219.94" as="sourcePoint" />
            <mxPoint x="-550" y="219.94" as="targetPoint" />
          </mxGeometry>
        </mxCell>
        <mxCell id="jr-n6Z9DIesCHv_oQTnh-1708" value="&lt;font style=&quot;font-size: 6px;&quot;&gt;Actor-Critic Methods&lt;/font&gt;" style="text;html=1;align=center;verticalAlign=middle;whiteSpace=wrap;rounded=0;" parent="1" vertex="1">
          <mxGeometry x="-550" y="210" width="60" height="20" as="geometry" />
        </mxCell>
        <mxCell id="jr-n6Z9DIesCHv_oQTnh-1709" value="" style="endArrow=none;dashed=1;html=1;rounded=0;" parent="1" edge="1">
          <mxGeometry width="50" height="50" relative="1" as="geometry">
            <mxPoint x="-570" y="239.94" as="sourcePoint" />
            <mxPoint x="-550" y="239.94" as="targetPoint" />
          </mxGeometry>
        </mxCell>
        <mxCell id="jr-n6Z9DIesCHv_oQTnh-1710" value="&lt;font style=&quot;font-size: 6px;&quot;&gt;Proximal Policy Optimization (PPO)&lt;/font&gt;" style="text;html=1;align=center;verticalAlign=middle;whiteSpace=wrap;rounded=0;" parent="1" vertex="1">
          <mxGeometry x="-550" y="230" width="100" height="20" as="geometry" />
        </mxCell>
        <mxCell id="jr-n6Z9DIesCHv_oQTnh-1711" value="" style="endArrow=none;dashed=1;html=1;rounded=0;" parent="1" edge="1">
          <mxGeometry width="50" height="50" relative="1" as="geometry">
            <mxPoint x="-570" y="259.94" as="sourcePoint" />
            <mxPoint x="-550" y="259.94" as="targetPoint" />
          </mxGeometry>
        </mxCell>
        <mxCell id="jr-n6Z9DIesCHv_oQTnh-1712" value="&lt;font style=&quot;font-size: 6px;&quot;&gt;REINFORCE (Monte Carlo Policy Gradient)&lt;/font&gt;" style="text;html=1;align=center;verticalAlign=middle;whiteSpace=wrap;rounded=0;" parent="1" vertex="1">
          <mxGeometry x="-550" y="250" width="120" height="20" as="geometry" />
        </mxCell>
        <mxCell id="jr-n6Z9DIesCHv_oQTnh-1713" value="" style="endArrow=none;dashed=1;html=1;rounded=0;" parent="1" edge="1">
          <mxGeometry width="50" height="50" relative="1" as="geometry">
            <mxPoint x="-570" y="279.94" as="sourcePoint" />
            <mxPoint x="-550" y="279.94" as="targetPoint" />
          </mxGeometry>
        </mxCell>
        <mxCell id="jr-n6Z9DIesCHv_oQTnh-1714" value="&lt;font style=&quot;font-size: 6px;&quot;&gt;A3C (Asynchronous Advantage Actor-Critic)&lt;/font&gt;" style="text;html=1;align=center;verticalAlign=middle;whiteSpace=wrap;rounded=0;" parent="1" vertex="1">
          <mxGeometry x="-550" y="270" width="130" height="20" as="geometry" />
        </mxCell>
        <mxCell id="jr-n6Z9DIesCHv_oQTnh-1715" value="" style="endArrow=none;dashed=1;html=1;rounded=0;" parent="1" edge="1">
          <mxGeometry width="50" height="50" relative="1" as="geometry">
            <mxPoint x="-570" y="299.94" as="sourcePoint" />
            <mxPoint x="-550" y="299.94" as="targetPoint" />
          </mxGeometry>
        </mxCell>
        <mxCell id="jr-n6Z9DIesCHv_oQTnh-1716" value="&lt;font style=&quot;font-size: 6px;&quot;&gt;TD Learning (Temporal Difference)&lt;/font&gt;" style="text;html=1;align=center;verticalAlign=middle;whiteSpace=wrap;rounded=0;" parent="1" vertex="1">
          <mxGeometry x="-550" y="290" width="100" height="20" as="geometry" />
        </mxCell>
        <mxCell id="jr-n6Z9DIesCHv_oQTnh-1717" value="" style="endArrow=none;dashed=1;html=1;rounded=0;" parent="1" edge="1">
          <mxGeometry width="50" height="50" relative="1" as="geometry">
            <mxPoint x="-570" y="319.94" as="sourcePoint" />
            <mxPoint x="-550" y="319.94" as="targetPoint" />
          </mxGeometry>
        </mxCell>
        <mxCell id="jr-n6Z9DIesCHv_oQTnh-1718" value="&lt;font style=&quot;font-size: 6px;&quot;&gt;Trust Region Policy Optimization (TRPO)&lt;/font&gt;" style="text;html=1;align=center;verticalAlign=middle;whiteSpace=wrap;rounded=0;" parent="1" vertex="1">
          <mxGeometry x="-550" y="310" width="120" height="20" as="geometry" />
        </mxCell>
        <mxCell id="jr-n6Z9DIesCHv_oQTnh-1719" value="" style="endArrow=none;dashed=1;html=1;rounded=0;" parent="1" edge="1">
          <mxGeometry width="50" height="50" relative="1" as="geometry">
            <mxPoint x="-570" y="339.94" as="sourcePoint" />
            <mxPoint x="-550" y="339.94" as="targetPoint" />
          </mxGeometry>
        </mxCell>
        <mxCell id="jr-n6Z9DIesCHv_oQTnh-1720" value="&lt;font style=&quot;font-size: 6px;&quot;&gt;SARSA (State-Action-Reward-State-Action)&lt;/font&gt;" style="text;html=1;align=center;verticalAlign=middle;whiteSpace=wrap;rounded=0;" parent="1" vertex="1">
          <mxGeometry x="-550" y="330" width="120" height="20" as="geometry" />
        </mxCell>
        <mxCell id="jr-n6Z9DIesCHv_oQTnh-1722" style="edgeStyle=orthogonalEdgeStyle;rounded=0;orthogonalLoop=1;jettySize=auto;html=1;exitX=0.5;exitY=1;exitDx=0;exitDy=0;" parent="1" edge="1">
          <mxGeometry relative="1" as="geometry">
            <mxPoint x="-295" y="140" as="sourcePoint" />
            <mxPoint x="-295" y="140" as="targetPoint" />
          </mxGeometry>
        </mxCell>
        <mxCell id="jr-n6Z9DIesCHv_oQTnh-1723" value="" style="endArrow=none;dashed=1;html=1;rounded=0;" parent="1" edge="1">
          <mxGeometry width="50" height="50" relative="1" as="geometry">
            <mxPoint x="-350" y="140" as="sourcePoint" />
            <mxPoint x="-350" y="320" as="targetPoint" />
          </mxGeometry>
        </mxCell>
        <mxCell id="jr-n6Z9DIesCHv_oQTnh-1724" value="" style="endArrow=none;dashed=1;html=1;rounded=0;" parent="1" edge="1">
          <mxGeometry width="50" height="50" relative="1" as="geometry">
            <mxPoint x="-350" y="159.94" as="sourcePoint" />
            <mxPoint x="-330" y="159.94" as="targetPoint" />
          </mxGeometry>
        </mxCell>
        <mxCell id="jr-n6Z9DIesCHv_oQTnh-1725" value="&lt;font style=&quot;font-size: 6px;&quot;&gt;Generative Adversarial Networks (GANs)&lt;/font&gt;" style="text;html=1;align=center;verticalAlign=middle;whiteSpace=wrap;rounded=0;" parent="1" vertex="1">
          <mxGeometry x="-330" y="150" width="120" height="20" as="geometry" />
        </mxCell>
        <mxCell id="jr-n6Z9DIesCHv_oQTnh-1726" value="" style="endArrow=none;dashed=1;html=1;rounded=0;" parent="1" edge="1">
          <mxGeometry width="50" height="50" relative="1" as="geometry">
            <mxPoint x="-350" y="179.94" as="sourcePoint" />
            <mxPoint x="-330" y="179.94" as="targetPoint" />
          </mxGeometry>
        </mxCell>
        <mxCell id="jr-n6Z9DIesCHv_oQTnh-1727" value="&lt;font style=&quot;font-size: 6px;&quot;&gt;Variational Autoencoders (VAEs)&lt;/font&gt;" style="text;html=1;align=center;verticalAlign=middle;whiteSpace=wrap;rounded=0;" parent="1" vertex="1">
          <mxGeometry x="-330" y="170" width="90" height="20" as="geometry" />
        </mxCell>
        <mxCell id="jr-n6Z9DIesCHv_oQTnh-1728" value="" style="endArrow=none;dashed=1;html=1;rounded=0;" parent="1" edge="1">
          <mxGeometry width="50" height="50" relative="1" as="geometry">
            <mxPoint x="-350" y="199.94" as="sourcePoint" />
            <mxPoint x="-330" y="199.94" as="targetPoint" />
          </mxGeometry>
        </mxCell>
        <mxCell id="jr-n6Z9DIesCHv_oQTnh-1729" value="&lt;font style=&quot;font-size: 6px;&quot;&gt;Restricted Boltzmann Machines (RBMs) &lt;/font&gt;" style="text;html=1;align=center;verticalAlign=middle;whiteSpace=wrap;rounded=0;" parent="1" vertex="1">
          <mxGeometry x="-330" y="190" width="110" height="20" as="geometry" />
        </mxCell>
        <mxCell id="jr-n6Z9DIesCHv_oQTnh-1730" value="" style="endArrow=none;dashed=1;html=1;rounded=0;" parent="1" edge="1">
          <mxGeometry width="50" height="50" relative="1" as="geometry">
            <mxPoint x="-350" y="219.94" as="sourcePoint" />
            <mxPoint x="-330" y="219.94" as="targetPoint" />
          </mxGeometry>
        </mxCell>
        <mxCell id="jr-n6Z9DIesCHv_oQTnh-1731" value="&lt;font style=&quot;font-size: 6px;&quot;&gt;Deep Boltzmann Machines (DBMs)&lt;/font&gt;" style="text;html=1;align=center;verticalAlign=middle;whiteSpace=wrap;rounded=0;" parent="1" vertex="1">
          <mxGeometry x="-330" y="210" width="100" height="20" as="geometry" />
        </mxCell>
        <mxCell id="jr-n6Z9DIesCHv_oQTnh-1732" value="" style="endArrow=none;dashed=1;html=1;rounded=0;" parent="1" edge="1">
          <mxGeometry width="50" height="50" relative="1" as="geometry">
            <mxPoint x="-350" y="239.94" as="sourcePoint" />
            <mxPoint x="-330" y="239.94" as="targetPoint" />
          </mxGeometry>
        </mxCell>
        <mxCell id="jr-n6Z9DIesCHv_oQTnh-1733" value="&lt;font style=&quot;font-size: 6px;&quot;&gt;Hidden Markov Models (HMM)&lt;/font&gt;" style="text;html=1;align=center;verticalAlign=middle;whiteSpace=wrap;rounded=0;" parent="1" vertex="1">
          <mxGeometry x="-330" y="230" width="90" height="20" as="geometry" />
        </mxCell>
        <mxCell id="jr-n6Z9DIesCHv_oQTnh-1734" value="" style="endArrow=none;dashed=1;html=1;rounded=0;" parent="1" edge="1">
          <mxGeometry width="50" height="50" relative="1" as="geometry">
            <mxPoint x="-350" y="259.94" as="sourcePoint" />
            <mxPoint x="-330" y="259.94" as="targetPoint" />
          </mxGeometry>
        </mxCell>
        <mxCell id="jr-n6Z9DIesCHv_oQTnh-1735" value="&lt;font style=&quot;font-size: 6px;&quot;&gt;Autoregressive Models (e.g., PixelCNN, WaveNet)&lt;/font&gt;" style="text;html=1;align=center;verticalAlign=middle;whiteSpace=wrap;rounded=0;" parent="1" vertex="1">
          <mxGeometry x="-330" y="250" width="140" height="20" as="geometry" />
        </mxCell>
        <mxCell id="jr-n6Z9DIesCHv_oQTnh-1736" value="" style="endArrow=none;dashed=1;html=1;rounded=0;" parent="1" edge="1">
          <mxGeometry width="50" height="50" relative="1" as="geometry">
            <mxPoint x="-350" y="279.94" as="sourcePoint" />
            <mxPoint x="-330" y="279.94" as="targetPoint" />
          </mxGeometry>
        </mxCell>
        <mxCell id="jr-n6Z9DIesCHv_oQTnh-1737" value="&lt;font style=&quot;font-size: 6px;&quot;&gt;Normalizing Flows&lt;/font&gt;" style="text;html=1;align=center;verticalAlign=middle;whiteSpace=wrap;rounded=0;" parent="1" vertex="1">
          <mxGeometry x="-330" y="270" width="60" height="20" as="geometry" />
        </mxCell>
        <mxCell id="jr-n6Z9DIesCHv_oQTnh-1738" value="" style="endArrow=none;dashed=1;html=1;rounded=0;" parent="1" edge="1">
          <mxGeometry width="50" height="50" relative="1" as="geometry">
            <mxPoint x="-350" y="299.94" as="sourcePoint" />
            <mxPoint x="-330" y="299.94" as="targetPoint" />
          </mxGeometry>
        </mxCell>
        <mxCell id="jr-n6Z9DIesCHv_oQTnh-1739" value="&lt;font style=&quot;font-size: 6px;&quot;&gt;Markov Chain Monte Carlo (MCMC)&lt;/font&gt;" style="text;html=1;align=center;verticalAlign=middle;whiteSpace=wrap;rounded=0;" parent="1" vertex="1">
          <mxGeometry x="-330" y="290" width="100" height="20" as="geometry" />
        </mxCell>
        <mxCell id="jr-n6Z9DIesCHv_oQTnh-1740" value="" style="endArrow=none;dashed=1;html=1;rounded=0;" parent="1" edge="1">
          <mxGeometry width="50" height="50" relative="1" as="geometry">
            <mxPoint x="-350" y="319.94" as="sourcePoint" />
            <mxPoint x="-330" y="319.94" as="targetPoint" />
          </mxGeometry>
        </mxCell>
        <mxCell id="jr-n6Z9DIesCHv_oQTnh-1741" value="&lt;font style=&quot;font-size: 6px;&quot;&gt;Energy-based Models (EBMs)&lt;/font&gt;" style="text;html=1;align=center;verticalAlign=middle;whiteSpace=wrap;rounded=0;" parent="1" vertex="1">
          <mxGeometry x="-330" y="310" width="90" height="20" as="geometry" />
        </mxCell>
        <mxCell id="jr-n6Z9DIesCHv_oQTnh-1744" style="edgeStyle=orthogonalEdgeStyle;rounded=0;orthogonalLoop=1;jettySize=auto;html=1;exitX=0.5;exitY=1;exitDx=0;exitDy=0;" parent="1" edge="1">
          <mxGeometry relative="1" as="geometry">
            <mxPoint x="-95" y="140" as="sourcePoint" />
            <mxPoint x="-95" y="140" as="targetPoint" />
          </mxGeometry>
        </mxCell>
        <mxCell id="jr-n6Z9DIesCHv_oQTnh-1745" value="" style="endArrow=none;dashed=1;html=1;rounded=0;" parent="1" edge="1">
          <mxGeometry width="50" height="50" relative="1" as="geometry">
            <mxPoint x="-150" y="140" as="sourcePoint" />
            <mxPoint x="-150" y="300" as="targetPoint" />
          </mxGeometry>
        </mxCell>
        <mxCell id="jr-n6Z9DIesCHv_oQTnh-1746" value="" style="endArrow=none;dashed=1;html=1;rounded=0;" parent="1" edge="1">
          <mxGeometry width="50" height="50" relative="1" as="geometry">
            <mxPoint x="-150" y="159.94" as="sourcePoint" />
            <mxPoint x="-130" y="159.94" as="targetPoint" />
          </mxGeometry>
        </mxCell>
        <mxCell id="jr-n6Z9DIesCHv_oQTnh-1747" value="" style="endArrow=none;dashed=1;html=1;rounded=0;" parent="1" edge="1">
          <mxGeometry width="50" height="50" relative="1" as="geometry">
            <mxPoint x="-150" y="179.94" as="sourcePoint" />
            <mxPoint x="-130" y="179.94" as="targetPoint" />
          </mxGeometry>
        </mxCell>
        <mxCell id="jr-n6Z9DIesCHv_oQTnh-1748" value="&lt;font style=&quot;font-size: 6px;&quot;&gt;Pre-trained Transformers (e.g., BERT, GPT, T5)&lt;/font&gt;" style="text;html=1;align=center;verticalAlign=middle;whiteSpace=wrap;rounded=0;" parent="1" vertex="1">
          <mxGeometry x="-130" y="170" width="130" height="20" as="geometry" />
        </mxCell>
        <mxCell id="jr-n6Z9DIesCHv_oQTnh-1749" value="" style="endArrow=none;dashed=1;html=1;rounded=0;" parent="1" edge="1">
          <mxGeometry width="50" height="50" relative="1" as="geometry">
            <mxPoint x="-150" y="199.94" as="sourcePoint" />
            <mxPoint x="-130" y="199.94" as="targetPoint" />
          </mxGeometry>
        </mxCell>
        <mxCell id="jr-n6Z9DIesCHv_oQTnh-1750" value="&lt;font style=&quot;font-size: 6px;&quot;&gt;Fine-Tuning &lt;/font&gt;" style="text;html=1;align=center;verticalAlign=middle;whiteSpace=wrap;rounded=0;" parent="1" vertex="1">
          <mxGeometry x="-130" y="190" width="50" height="20" as="geometry" />
        </mxCell>
        <mxCell id="jr-n6Z9DIesCHv_oQTnh-1751" value="" style="endArrow=none;dashed=1;html=1;rounded=0;" parent="1" edge="1">
          <mxGeometry width="50" height="50" relative="1" as="geometry">
            <mxPoint x="-150" y="219.94" as="sourcePoint" />
            <mxPoint x="-130" y="219.94" as="targetPoint" />
          </mxGeometry>
        </mxCell>
        <mxCell id="jr-n6Z9DIesCHv_oQTnh-1752" value="&lt;font style=&quot;font-size: 6px;&quot;&gt;Feature Extraction&lt;/font&gt;" style="text;html=1;align=center;verticalAlign=middle;whiteSpace=wrap;rounded=0;" parent="1" vertex="1">
          <mxGeometry x="-130" y="210" width="60" height="20" as="geometry" />
        </mxCell>
        <mxCell id="jr-n6Z9DIesCHv_oQTnh-1753" value="" style="endArrow=none;dashed=1;html=1;rounded=0;" parent="1" edge="1">
          <mxGeometry width="50" height="50" relative="1" as="geometry">
            <mxPoint x="-150" y="239.94" as="sourcePoint" />
            <mxPoint x="-130" y="239.94" as="targetPoint" />
          </mxGeometry>
        </mxCell>
        <mxCell id="jr-n6Z9DIesCHv_oQTnh-1754" value="&lt;font style=&quot;font-size: 6px;&quot;&gt;Domain Adaptation&lt;/font&gt;" style="text;html=1;align=center;verticalAlign=middle;whiteSpace=wrap;rounded=0;" parent="1" vertex="1">
          <mxGeometry x="-130" y="230" width="60" height="20" as="geometry" />
        </mxCell>
        <mxCell id="jr-n6Z9DIesCHv_oQTnh-1755" value="" style="endArrow=none;dashed=1;html=1;rounded=0;" parent="1" edge="1">
          <mxGeometry width="50" height="50" relative="1" as="geometry">
            <mxPoint x="-150" y="259.94" as="sourcePoint" />
            <mxPoint x="-130" y="259.94" as="targetPoint" />
          </mxGeometry>
        </mxCell>
        <mxCell id="jr-n6Z9DIesCHv_oQTnh-1756" value="&lt;font style=&quot;font-size: 6px;&quot;&gt;Multitask Learning&lt;/font&gt;" style="text;html=1;align=center;verticalAlign=middle;whiteSpace=wrap;rounded=0;" parent="1" vertex="1">
          <mxGeometry x="-130" y="250" width="60" height="20" as="geometry" />
        </mxCell>
        <mxCell id="jr-n6Z9DIesCHv_oQTnh-1757" value="" style="endArrow=none;dashed=1;html=1;rounded=0;" parent="1" edge="1">
          <mxGeometry width="50" height="50" relative="1" as="geometry">
            <mxPoint x="-150" y="279.94" as="sourcePoint" />
            <mxPoint x="-130" y="279.94" as="targetPoint" />
          </mxGeometry>
        </mxCell>
        <mxCell id="jr-n6Z9DIesCHv_oQTnh-1758" value="&lt;font style=&quot;font-size: 6px;&quot;&gt;Zero-shot Learning&lt;/font&gt;" style="text;html=1;align=center;verticalAlign=middle;whiteSpace=wrap;rounded=0;" parent="1" vertex="1">
          <mxGeometry x="-130" y="270" width="60" height="20" as="geometry" />
        </mxCell>
        <mxCell id="jr-n6Z9DIesCHv_oQTnh-1759" value="" style="endArrow=none;dashed=1;html=1;rounded=0;" parent="1" edge="1">
          <mxGeometry width="50" height="50" relative="1" as="geometry">
            <mxPoint x="-150" y="299.94" as="sourcePoint" />
            <mxPoint x="-130" y="299.94" as="targetPoint" />
          </mxGeometry>
        </mxCell>
        <mxCell id="jr-n6Z9DIesCHv_oQTnh-1760" value="&lt;font style=&quot;font-size: 6px;&quot;&gt;Few-shot Learning&lt;/font&gt;" style="text;html=1;align=center;verticalAlign=middle;whiteSpace=wrap;rounded=0;" parent="1" vertex="1">
          <mxGeometry x="-130" y="290" width="60" height="20" as="geometry" />
        </mxCell>
        <mxCell id="jr-n6Z9DIesCHv_oQTnh-1763" value="&lt;font style=&quot;font-size: 6px;&quot;&gt;Pre-trained CNNs (e.g., VGG, ResNet, Inception)&lt;/font&gt;" style="text;html=1;align=center;verticalAlign=middle;whiteSpace=wrap;rounded=0;" parent="1" vertex="1">
          <mxGeometry x="-130" y="150" width="140" height="20" as="geometry" />
        </mxCell>
        <mxCell id="jr-n6Z9DIesCHv_oQTnh-1785" style="edgeStyle=orthogonalEdgeStyle;rounded=0;orthogonalLoop=1;jettySize=auto;html=1;exitX=0.5;exitY=1;exitDx=0;exitDy=0;" parent="1" edge="1">
          <mxGeometry relative="1" as="geometry">
            <mxPoint x="105" y="140" as="sourcePoint" />
            <mxPoint x="105" y="140" as="targetPoint" />
          </mxGeometry>
        </mxCell>
        <mxCell id="jr-n6Z9DIesCHv_oQTnh-1786" value="" style="endArrow=none;dashed=1;html=1;rounded=0;" parent="1" edge="1">
          <mxGeometry width="50" height="50" relative="1" as="geometry">
            <mxPoint x="50" y="140" as="sourcePoint" />
            <mxPoint x="50" y="320" as="targetPoint" />
          </mxGeometry>
        </mxCell>
        <mxCell id="jr-n6Z9DIesCHv_oQTnh-1787" value="" style="endArrow=none;dashed=1;html=1;rounded=0;" parent="1" edge="1">
          <mxGeometry width="50" height="50" relative="1" as="geometry">
            <mxPoint x="50" y="159.94" as="sourcePoint" />
            <mxPoint x="70" y="159.94" as="targetPoint" />
          </mxGeometry>
        </mxCell>
        <mxCell id="jr-n6Z9DIesCHv_oQTnh-1788" value="" style="endArrow=none;dashed=1;html=1;rounded=0;" parent="1" edge="1">
          <mxGeometry width="50" height="50" relative="1" as="geometry">
            <mxPoint x="50" y="179.94" as="sourcePoint" />
            <mxPoint x="70" y="179.94" as="targetPoint" />
          </mxGeometry>
        </mxCell>
        <mxCell id="jr-n6Z9DIesCHv_oQTnh-1789" value="&lt;font style=&quot;font-size: 6px;&quot;&gt;Pseudo-Labeling&lt;/font&gt;" style="text;html=1;align=center;verticalAlign=middle;whiteSpace=wrap;rounded=0;" parent="1" vertex="1">
          <mxGeometry x="70" y="170" width="60" height="20" as="geometry" />
        </mxCell>
        <mxCell id="jr-n6Z9DIesCHv_oQTnh-1790" value="" style="endArrow=none;dashed=1;html=1;rounded=0;" parent="1" edge="1">
          <mxGeometry width="50" height="50" relative="1" as="geometry">
            <mxPoint x="50" y="199.94" as="sourcePoint" />
            <mxPoint x="70" y="199.94" as="targetPoint" />
          </mxGeometry>
        </mxCell>
        <mxCell id="jr-n6Z9DIesCHv_oQTnh-1791" value="&lt;font style=&quot;font-size: 6px;&quot;&gt;Semi-Supervised Support Vector Machines (S3VM) &lt;/font&gt;" style="text;html=1;align=center;verticalAlign=middle;whiteSpace=wrap;rounded=0;" parent="1" vertex="1">
          <mxGeometry x="70" y="190" width="150" height="20" as="geometry" />
        </mxCell>
        <mxCell id="jr-n6Z9DIesCHv_oQTnh-1792" value="" style="endArrow=none;dashed=1;html=1;rounded=0;" parent="1" edge="1">
          <mxGeometry width="50" height="50" relative="1" as="geometry">
            <mxPoint x="50" y="219.94" as="sourcePoint" />
            <mxPoint x="70" y="219.94" as="targetPoint" />
          </mxGeometry>
        </mxCell>
        <mxCell id="jr-n6Z9DIesCHv_oQTnh-1793" value="&lt;font style=&quot;font-size: 6px;&quot;&gt;Generative Models (e.g., Variational Autoencoders, GANs)&lt;/font&gt;" style="text;html=1;align=center;verticalAlign=middle;whiteSpace=wrap;rounded=0;" parent="1" vertex="1">
          <mxGeometry x="70" y="210" width="170" height="20" as="geometry" />
        </mxCell>
        <mxCell id="jr-n6Z9DIesCHv_oQTnh-1794" value="" style="endArrow=none;dashed=1;html=1;rounded=0;" parent="1" edge="1">
          <mxGeometry width="50" height="50" relative="1" as="geometry">
            <mxPoint x="50" y="239.94" as="sourcePoint" />
            <mxPoint x="70" y="239.94" as="targetPoint" />
          </mxGeometry>
        </mxCell>
        <mxCell id="jr-n6Z9DIesCHv_oQTnh-1795" value="&lt;font style=&quot;font-size: 6px;&quot;&gt;Graph-Based Models (e.g., Label Propagation, Label Spreading)&lt;/font&gt;" style="text;html=1;align=center;verticalAlign=middle;whiteSpace=wrap;rounded=0;" parent="1" vertex="1">
          <mxGeometry x="70" y="230" width="180" height="20" as="geometry" />
        </mxCell>
        <mxCell id="jr-n6Z9DIesCHv_oQTnh-1796" value="" style="endArrow=none;dashed=1;html=1;rounded=0;" parent="1" edge="1">
          <mxGeometry width="50" height="50" relative="1" as="geometry">
            <mxPoint x="50" y="259.94" as="sourcePoint" />
            <mxPoint x="70" y="259.94" as="targetPoint" />
          </mxGeometry>
        </mxCell>
        <mxCell id="jr-n6Z9DIesCHv_oQTnh-1797" value="&lt;font style=&quot;font-size: 6px;&quot;&gt;Co-Training&lt;/font&gt;" style="text;html=1;align=center;verticalAlign=middle;whiteSpace=wrap;rounded=0;" parent="1" vertex="1">
          <mxGeometry x="70" y="250" width="50" height="20" as="geometry" />
        </mxCell>
        <mxCell id="jr-n6Z9DIesCHv_oQTnh-1798" value="" style="endArrow=none;dashed=1;html=1;rounded=0;" parent="1" edge="1">
          <mxGeometry width="50" height="50" relative="1" as="geometry">
            <mxPoint x="50" y="279.94" as="sourcePoint" />
            <mxPoint x="70" y="279.94" as="targetPoint" />
          </mxGeometry>
        </mxCell>
        <mxCell id="jr-n6Z9DIesCHv_oQTnh-1799" value="&lt;font style=&quot;font-size: 6px;&quot;&gt;Consistency Regularization&lt;/font&gt;" style="text;html=1;align=center;verticalAlign=middle;whiteSpace=wrap;rounded=0;" parent="1" vertex="1">
          <mxGeometry x="70" y="270" width="80" height="20" as="geometry" />
        </mxCell>
        <mxCell id="jr-n6Z9DIesCHv_oQTnh-1800" value="" style="endArrow=none;dashed=1;html=1;rounded=0;" parent="1" edge="1">
          <mxGeometry width="50" height="50" relative="1" as="geometry">
            <mxPoint x="50" y="299.94" as="sourcePoint" />
            <mxPoint x="70" y="299.94" as="targetPoint" />
          </mxGeometry>
        </mxCell>
        <mxCell id="jr-n6Z9DIesCHv_oQTnh-1801" value="&lt;font style=&quot;font-size: 6px;&quot;&gt;Virtual Adversarial Training (VAT)&lt;/font&gt;" style="text;html=1;align=center;verticalAlign=middle;whiteSpace=wrap;rounded=0;" parent="1" vertex="1">
          <mxGeometry x="70" y="290" width="110" height="20" as="geometry" />
        </mxCell>
        <mxCell id="jr-n6Z9DIesCHv_oQTnh-1802" value="&lt;font style=&quot;font-size: 6px;&quot;&gt;Self-Training&lt;/font&gt;" style="text;html=1;align=center;verticalAlign=middle;whiteSpace=wrap;rounded=0;" parent="1" vertex="1">
          <mxGeometry x="70" y="150" width="50" height="20" as="geometry" />
        </mxCell>
        <mxCell id="jr-n6Z9DIesCHv_oQTnh-1806" value="" style="endArrow=none;dashed=1;html=1;rounded=0;" parent="1" edge="1">
          <mxGeometry width="50" height="50" relative="1" as="geometry">
            <mxPoint x="50" y="319.94" as="sourcePoint" />
            <mxPoint x="70" y="319.94" as="targetPoint" />
          </mxGeometry>
        </mxCell>
        <mxCell id="jr-n6Z9DIesCHv_oQTnh-1807" value="&lt;font style=&quot;font-size: 6px;&quot;&gt;Deep Semi-Supervised Learning (e.g., Ladder Networks)&lt;/font&gt;" style="text;html=1;align=center;verticalAlign=middle;whiteSpace=wrap;rounded=0;" parent="1" vertex="1">
          <mxGeometry x="70" y="310" width="160" height="20" as="geometry" />
        </mxCell>
        <mxCell id="jr-n6Z9DIesCHv_oQTnh-1810" style="edgeStyle=orthogonalEdgeStyle;rounded=0;orthogonalLoop=1;jettySize=auto;html=1;exitX=0.5;exitY=1;exitDx=0;exitDy=0;" parent="1" edge="1">
          <mxGeometry relative="1" as="geometry">
            <mxPoint x="335" y="140" as="sourcePoint" />
            <mxPoint x="335" y="140" as="targetPoint" />
          </mxGeometry>
        </mxCell>
        <mxCell id="jr-n6Z9DIesCHv_oQTnh-1811" value="" style="endArrow=none;dashed=1;html=1;rounded=0;" parent="1" edge="1">
          <mxGeometry width="50" height="50" relative="1" as="geometry">
            <mxPoint x="280" y="140" as="sourcePoint" />
            <mxPoint x="280" y="360" as="targetPoint" />
          </mxGeometry>
        </mxCell>
        <mxCell id="jr-n6Z9DIesCHv_oQTnh-1812" value="" style="endArrow=none;dashed=1;html=1;rounded=0;" parent="1" edge="1">
          <mxGeometry width="50" height="50" relative="1" as="geometry">
            <mxPoint x="280" y="159.94" as="sourcePoint" />
            <mxPoint x="300" y="159.94" as="targetPoint" />
          </mxGeometry>
        </mxCell>
        <mxCell id="jr-n6Z9DIesCHv_oQTnh-1813" value="&lt;font style=&quot;font-size: 6px;&quot;&gt;Bagging (Bootstrap Aggregating)&lt;/font&gt;" style="text;html=1;align=center;verticalAlign=middle;whiteSpace=wrap;rounded=0;" parent="1" vertex="1">
          <mxGeometry x="300" y="150" width="100" height="20" as="geometry" />
        </mxCell>
        <mxCell id="jr-n6Z9DIesCHv_oQTnh-1814" value="" style="endArrow=none;dashed=1;html=1;rounded=0;" parent="1" edge="1">
          <mxGeometry width="50" height="50" relative="1" as="geometry">
            <mxPoint x="280" y="179.94" as="sourcePoint" />
            <mxPoint x="300" y="179.94" as="targetPoint" />
          </mxGeometry>
        </mxCell>
        <mxCell id="jr-n6Z9DIesCHv_oQTnh-1815" value="&lt;font style=&quot;font-size: 6px;&quot;&gt;Boosting&lt;/font&gt;" style="text;html=1;align=center;verticalAlign=middle;whiteSpace=wrap;rounded=0;" parent="1" vertex="1">
          <mxGeometry x="300" y="170" width="40" height="20" as="geometry" />
        </mxCell>
        <mxCell id="jr-n6Z9DIesCHv_oQTnh-1816" value="" style="endArrow=none;dashed=1;html=1;rounded=0;" parent="1" edge="1">
          <mxGeometry width="50" height="50" relative="1" as="geometry">
            <mxPoint x="280" y="199.94" as="sourcePoint" />
            <mxPoint x="300" y="199.94" as="targetPoint" />
          </mxGeometry>
        </mxCell>
        <mxCell id="jr-n6Z9DIesCHv_oQTnh-1817" value="&lt;font style=&quot;font-size: 6px;&quot;&gt;Stacking (Stacked Generalization) &lt;/font&gt;" style="text;html=1;align=center;verticalAlign=middle;whiteSpace=wrap;rounded=0;" parent="1" vertex="1">
          <mxGeometry x="300" y="190" width="100" height="20" as="geometry" />
        </mxCell>
        <mxCell id="jr-n6Z9DIesCHv_oQTnh-1818" value="" style="endArrow=none;dashed=1;html=1;rounded=0;" parent="1" edge="1">
          <mxGeometry width="50" height="50" relative="1" as="geometry">
            <mxPoint x="280" y="219.94" as="sourcePoint" />
            <mxPoint x="300" y="219.94" as="targetPoint" />
          </mxGeometry>
        </mxCell>
        <mxCell id="jr-n6Z9DIesCHv_oQTnh-1819" value="&lt;font style=&quot;font-size: 6px;&quot;&gt;Voting&lt;/font&gt;" style="text;html=1;align=center;verticalAlign=middle;whiteSpace=wrap;rounded=0;" parent="1" vertex="1">
          <mxGeometry x="300" y="210" width="30" height="20" as="geometry" />
        </mxCell>
        <mxCell id="jr-n6Z9DIesCHv_oQTnh-1820" value="" style="endArrow=none;dashed=1;html=1;rounded=0;" parent="1" edge="1">
          <mxGeometry width="50" height="50" relative="1" as="geometry">
            <mxPoint x="280" y="239.94" as="sourcePoint" />
            <mxPoint x="300" y="239.94" as="targetPoint" />
          </mxGeometry>
        </mxCell>
        <mxCell id="jr-n6Z9DIesCHv_oQTnh-1821" value="&lt;font style=&quot;font-size: 6px;&quot;&gt;Random Forest&lt;/font&gt;" style="text;html=1;align=center;verticalAlign=middle;whiteSpace=wrap;rounded=0;" parent="1" vertex="1">
          <mxGeometry x="300" y="230" width="50" height="20" as="geometry" />
        </mxCell>
        <mxCell id="jr-n6Z9DIesCHv_oQTnh-1822" value="" style="endArrow=none;dashed=1;html=1;rounded=0;" parent="1" edge="1">
          <mxGeometry width="50" height="50" relative="1" as="geometry">
            <mxPoint x="280" y="259.94" as="sourcePoint" />
            <mxPoint x="300" y="259.94" as="targetPoint" />
          </mxGeometry>
        </mxCell>
        <mxCell id="jr-n6Z9DIesCHv_oQTnh-1823" value="&lt;font style=&quot;font-size: 6px;&quot;&gt;Gradient Boosting Machines (GBM)&lt;/font&gt;" style="text;html=1;align=center;verticalAlign=middle;whiteSpace=wrap;rounded=0;" parent="1" vertex="1">
          <mxGeometry x="300" y="250" width="100" height="20" as="geometry" />
        </mxCell>
        <mxCell id="jr-n6Z9DIesCHv_oQTnh-1824" value="" style="endArrow=none;dashed=1;html=1;rounded=0;" parent="1" edge="1">
          <mxGeometry width="50" height="50" relative="1" as="geometry">
            <mxPoint x="280" y="279.94" as="sourcePoint" />
            <mxPoint x="300" y="279.94" as="targetPoint" />
          </mxGeometry>
        </mxCell>
        <mxCell id="jr-n6Z9DIesCHv_oQTnh-1825" value="&lt;font style=&quot;font-size: 6px;&quot;&gt;AdaBoost (Adaptive Boosting)&lt;/font&gt;" style="text;html=1;align=center;verticalAlign=middle;whiteSpace=wrap;rounded=0;" parent="1" vertex="1">
          <mxGeometry x="300" y="270" width="90" height="20" as="geometry" />
        </mxCell>
        <mxCell id="jr-n6Z9DIesCHv_oQTnh-1826" value="" style="endArrow=none;dashed=1;html=1;rounded=0;" parent="1" edge="1">
          <mxGeometry width="50" height="50" relative="1" as="geometry">
            <mxPoint x="280" y="299.94" as="sourcePoint" />
            <mxPoint x="300" y="299.94" as="targetPoint" />
          </mxGeometry>
        </mxCell>
        <mxCell id="jr-n6Z9DIesCHv_oQTnh-1827" value="&lt;font style=&quot;font-size: 6px;&quot;&gt;XGBoost&lt;/font&gt;" style="text;html=1;align=center;verticalAlign=middle;whiteSpace=wrap;rounded=0;" parent="1" vertex="1">
          <mxGeometry x="300" y="290" width="40" height="20" as="geometry" />
        </mxCell>
        <mxCell id="jr-n6Z9DIesCHv_oQTnh-1828" value="" style="endArrow=none;dashed=1;html=1;rounded=0;" parent="1" edge="1">
          <mxGeometry width="50" height="50" relative="1" as="geometry">
            <mxPoint x="280" y="319.94" as="sourcePoint" />
            <mxPoint x="300" y="319.94" as="targetPoint" />
          </mxGeometry>
        </mxCell>
        <mxCell id="jr-n6Z9DIesCHv_oQTnh-1829" value="&lt;font style=&quot;font-size: 6px;&quot;&gt;LightGBM&lt;/font&gt;" style="text;html=1;align=center;verticalAlign=middle;whiteSpace=wrap;rounded=0;" parent="1" vertex="1">
          <mxGeometry x="300" y="310" width="40" height="20" as="geometry" />
        </mxCell>
        <mxCell id="jr-n6Z9DIesCHv_oQTnh-1830" value="" style="endArrow=none;dashed=1;html=1;rounded=0;" parent="1" edge="1">
          <mxGeometry width="50" height="50" relative="1" as="geometry">
            <mxPoint x="280" y="339.94" as="sourcePoint" />
            <mxPoint x="300" y="339.94" as="targetPoint" />
          </mxGeometry>
        </mxCell>
        <mxCell id="jr-n6Z9DIesCHv_oQTnh-1831" value="&lt;font style=&quot;font-size: 6px;&quot;&gt;CatBoost&lt;/font&gt;" style="text;html=1;align=center;verticalAlign=middle;whiteSpace=wrap;rounded=0;" parent="1" vertex="1">
          <mxGeometry x="300" y="330" width="30" height="20" as="geometry" />
        </mxCell>
        <mxCell id="jr-n6Z9DIesCHv_oQTnh-1832" value="" style="endArrow=none;dashed=1;html=1;rounded=0;" parent="1" edge="1">
          <mxGeometry width="50" height="50" relative="1" as="geometry">
            <mxPoint x="280" y="359.94" as="sourcePoint" />
            <mxPoint x="300" y="359.94" as="targetPoint" />
          </mxGeometry>
        </mxCell>
        <mxCell id="jr-n6Z9DIesCHv_oQTnh-1833" value="&lt;font style=&quot;font-size: 6px;&quot;&gt;Voting Classifier (Soft/Hard)&lt;/font&gt;" style="text;html=1;align=center;verticalAlign=middle;whiteSpace=wrap;rounded=0;" parent="1" vertex="1">
          <mxGeometry x="300" y="350" width="80" height="20" as="geometry" />
        </mxCell>
        <mxCell id="jr-n6Z9DIesCHv_oQTnh-1860" value="&lt;font style=&quot;font-size: 9px;&quot;&gt;Text Classification&lt;/font&gt;" style="rounded=0;whiteSpace=wrap;html=1;" parent="1" vertex="1">
          <mxGeometry x="520" y="160" width="140" height="30" as="geometry" />
        </mxCell>
        <mxCell id="jr-n6Z9DIesCHv_oQTnh-1861" value="&lt;font style=&quot;font-size: 9px;&quot;&gt;Sentiment Analysis&lt;/font&gt;" style="rounded=0;whiteSpace=wrap;html=1;" parent="1" vertex="1">
          <mxGeometry x="520" y="205" width="140" height="30" as="geometry" />
        </mxCell>
        <mxCell id="jr-n6Z9DIesCHv_oQTnh-1862" value="&lt;font style=&quot;font-size: 9px;&quot;&gt;Named Entity Recognition (NER)&lt;/font&gt;" style="rounded=0;whiteSpace=wrap;html=1;" parent="1" vertex="1">
          <mxGeometry x="520" y="250" width="140" height="30" as="geometry" />
        </mxCell>
        <mxCell id="jr-n6Z9DIesCHv_oQTnh-1864" value="&lt;font style=&quot;font-size: 9px;&quot;&gt;Machine Translation&lt;/font&gt;" style="rounded=0;whiteSpace=wrap;html=1;" parent="1" vertex="1">
          <mxGeometry x="520" y="295" width="140" height="30" as="geometry" />
        </mxCell>
        <mxCell id="jr-n6Z9DIesCHv_oQTnh-1865" value="&lt;font style=&quot;font-size: 9px;&quot;&gt;Text Summarization&lt;/font&gt;" style="rounded=0;whiteSpace=wrap;html=1;" parent="1" vertex="1">
          <mxGeometry x="520" y="340" width="140" height="30" as="geometry" />
        </mxCell>
        <mxCell id="jr-n6Z9DIesCHv_oQTnh-1866" value="&lt;font style=&quot;font-size: 9px;&quot;&gt;Question Answering&lt;/font&gt;" style="rounded=0;whiteSpace=wrap;html=1;" parent="1" vertex="1">
          <mxGeometry x="520" y="390" width="140" height="30" as="geometry" />
        </mxCell>
        <mxCell id="jr-n6Z9DIesCHv_oQTnh-1867" value="&lt;font style=&quot;font-size: 9px;&quot;&gt;Text Generation&lt;/font&gt;" style="rounded=0;whiteSpace=wrap;html=1;" parent="1" vertex="1">
          <mxGeometry x="520" y="440" width="140" height="30" as="geometry" />
        </mxCell>
        <mxCell id="jr-n6Z9DIesCHv_oQTnh-1868" value="&lt;font style=&quot;font-size: 9px;&quot;&gt;Speech-to-Text&lt;/font&gt;" style="rounded=0;whiteSpace=wrap;html=1;" parent="1" vertex="1">
          <mxGeometry x="520" y="490" width="140" height="30" as="geometry" />
        </mxCell>
        <mxCell id="jr-n6Z9DIesCHv_oQTnh-1869" value="&lt;font style=&quot;font-size: 9px;&quot;&gt;Text-to-Speech (TTS)&lt;/font&gt;" style="rounded=0;whiteSpace=wrap;html=1;" parent="1" vertex="1">
          <mxGeometry x="520" y="540" width="140" height="30" as="geometry" />
        </mxCell>
        <mxCell id="jr-n6Z9DIesCHv_oQTnh-1870" value="&lt;font style=&quot;font-size: 9px;&quot;&gt;Topic Modeling&lt;/font&gt;" style="rounded=0;whiteSpace=wrap;html=1;" parent="1" vertex="1">
          <mxGeometry x="520" y="590" width="140" height="30" as="geometry" />
        </mxCell>
        <mxCell id="jr-n6Z9DIesCHv_oQTnh-1871" value="&lt;font style=&quot;font-size: 9px;&quot;&gt;Dependency Parsing&lt;/font&gt;" style="rounded=0;whiteSpace=wrap;html=1;" parent="1" vertex="1">
          <mxGeometry x="520" y="640" width="140" height="30" as="geometry" />
        </mxCell>
        <mxCell id="jr-n6Z9DIesCHv_oQTnh-1872" value="Part-of-Speech (POS) Tagging" style="rounded=0;whiteSpace=wrap;html=1;" parent="1" vertex="1">
          <mxGeometry x="520" y="690" width="140" height="30" as="geometry" />
        </mxCell>
        <mxCell id="jr-n6Z9DIesCHv_oQTnh-1873" value="Coreference Resolution" style="rounded=0;whiteSpace=wrap;html=1;" parent="1" vertex="1">
          <mxGeometry x="520" y="740" width="140" height="30" as="geometry" />
        </mxCell>
        <mxCell id="jr-n6Z9DIesCHv_oQTnh-1874" value="Language Modeling" style="rounded=0;whiteSpace=wrap;html=1;" parent="1" vertex="1">
          <mxGeometry x="520" y="790" width="140" height="30" as="geometry" />
        </mxCell>
        <mxCell id="jr-n6Z9DIesCHv_oQTnh-1875" value="Text Similarity/Matching" style="rounded=0;whiteSpace=wrap;html=1;" parent="1" vertex="1">
          <mxGeometry x="520" y="840" width="140" height="30" as="geometry" />
        </mxCell>
        <mxCell id="jr-n6Z9DIesCHv_oQTnh-1876" value="Dialogue Systems/Chatbots" style="rounded=0;whiteSpace=wrap;html=1;" parent="1" vertex="1">
          <mxGeometry x="520" y="890" width="140" height="30" as="geometry" />
        </mxCell>
        <mxCell id="jr-n6Z9DIesCHv_oQTnh-1877" value="&lt;font style=&quot;font-size: 9px;&quot;&gt;Image Classification&lt;/font&gt;" style="rounded=0;whiteSpace=wrap;html=1;" parent="1" vertex="1">
          <mxGeometry x="732.5" y="160" width="140" height="30" as="geometry" />
        </mxCell>
        <mxCell id="jr-n6Z9DIesCHv_oQTnh-1878" value="&lt;font style=&quot;font-size: 9px;&quot;&gt;Object Detection&lt;/font&gt;" style="rounded=0;whiteSpace=wrap;html=1;" parent="1" vertex="1">
          <mxGeometry x="732.5" y="205" width="140" height="30" as="geometry" />
        </mxCell>
        <mxCell id="jr-n6Z9DIesCHv_oQTnh-1879" value="&lt;font style=&quot;font-size: 9px;&quot;&gt;Semantic Segmentation&lt;/font&gt;" style="rounded=0;whiteSpace=wrap;html=1;" parent="1" vertex="1">
          <mxGeometry x="732.5" y="260" width="140" height="30" as="geometry" />
        </mxCell>
        <mxCell id="jr-n6Z9DIesCHv_oQTnh-1880" value="&lt;font style=&quot;font-size: 9px;&quot;&gt;Instance Segmentation&lt;/font&gt;" style="rounded=0;whiteSpace=wrap;html=1;" parent="1" vertex="1">
          <mxGeometry x="732.5" y="320" width="140" height="30" as="geometry" />
        </mxCell>
        <mxCell id="jr-n6Z9DIesCHv_oQTnh-1881" value="&lt;font style=&quot;font-size: 9px;&quot;&gt;Image Generation&lt;/font&gt;" style="rounded=0;whiteSpace=wrap;html=1;" parent="1" vertex="1">
          <mxGeometry x="732.5" y="380" width="140" height="30" as="geometry" />
        </mxCell>
        <mxCell id="jr-n6Z9DIesCHv_oQTnh-1882" value="&lt;font style=&quot;font-size: 9px;&quot;&gt;Image-to-Image Translation&lt;/font&gt;" style="rounded=0;whiteSpace=wrap;html=1;" parent="1" vertex="1">
          <mxGeometry x="732.5" y="440" width="140" height="30" as="geometry" />
        </mxCell>
        <mxCell id="jr-n6Z9DIesCHv_oQTnh-1883" value="&lt;font style=&quot;font-size: 9px;&quot;&gt;Pose Estimation&lt;/font&gt;" style="rounded=0;whiteSpace=wrap;html=1;" parent="1" vertex="1">
          <mxGeometry x="732.5" y="500" width="140" height="30" as="geometry" />
        </mxCell>
        <mxCell id="jr-n6Z9DIesCHv_oQTnh-1884" value="&lt;font style=&quot;font-size: 9px;&quot;&gt;Facial Recognition&lt;/font&gt;" style="rounded=0;whiteSpace=wrap;html=1;" parent="1" vertex="1">
          <mxGeometry x="732.5" y="550" width="140" height="30" as="geometry" />
        </mxCell>
        <mxCell id="jr-n6Z9DIesCHv_oQTnh-1885" value="&lt;font style=&quot;font-size: 9px;&quot;&gt;Image Captioning&lt;/font&gt;" style="rounded=0;whiteSpace=wrap;html=1;" parent="1" vertex="1">
          <mxGeometry x="732.5" y="600" width="140" height="30" as="geometry" />
        </mxCell>
        <mxCell id="jr-n6Z9DIesCHv_oQTnh-1886" value="&lt;font style=&quot;font-size: 9px;&quot;&gt;3D Vision&lt;/font&gt;" style="rounded=0;whiteSpace=wrap;html=1;" parent="1" vertex="1">
          <mxGeometry x="732.5" y="650" width="140" height="30" as="geometry" />
        </mxCell>
        <mxCell id="jr-n6Z9DIesCHv_oQTnh-1887" value="&lt;font style=&quot;font-size: 9px;&quot;&gt;Optical Flow&lt;/font&gt;" style="rounded=0;whiteSpace=wrap;html=1;" parent="1" vertex="1">
          <mxGeometry x="732.5" y="700" width="140" height="30" as="geometry" />
        </mxCell>
        <mxCell id="jr-n6Z9DIesCHv_oQTnh-1889" value="&lt;font style=&quot;font-size: 9px;&quot;&gt;Video Analysis&lt;/font&gt;" style="rounded=0;whiteSpace=wrap;html=1;" parent="1" vertex="1">
          <mxGeometry x="732.5" y="750" width="140" height="30" as="geometry" />
        </mxCell>
        <mxCell id="jr-n6Z9DIesCHv_oQTnh-1890" value="&lt;font style=&quot;font-size: 9px;&quot;&gt;Super-Resolution&lt;/font&gt;" style="rounded=0;whiteSpace=wrap;html=1;" parent="1" vertex="1">
          <mxGeometry x="732.5" y="800" width="140" height="30" as="geometry" />
        </mxCell>
        <mxCell id="jr-n6Z9DIesCHv_oQTnh-1891" value="&lt;font style=&quot;font-size: 9px;&quot;&gt;Image Retrieval&lt;/font&gt;" style="rounded=0;whiteSpace=wrap;html=1;" parent="1" vertex="1">
          <mxGeometry x="732.5" y="850" width="140" height="30" as="geometry" />
        </mxCell>
        <mxCell id="jr-n6Z9DIesCHv_oQTnh-1892" value="&lt;font style=&quot;font-size: 9px;&quot;&gt;Style Transfer&lt;/font&gt;" style="rounded=0;whiteSpace=wrap;html=1;" parent="1" vertex="1">
          <mxGeometry x="732.5" y="900" width="140" height="30" as="geometry" />
        </mxCell>
        <mxCell id="jr-n6Z9DIesCHv_oQTnh-1893" value="&lt;font style=&quot;font-size: 9px;&quot;&gt;Anomaly Detection&lt;/font&gt;" style="rounded=0;whiteSpace=wrap;html=1;" parent="1" vertex="1">
          <mxGeometry x="732.5" y="950" width="140" height="30" as="geometry" />
        </mxCell>
        <mxCell id="jr-n6Z9DIesCHv_oQTnh-1894" value="&lt;font style=&quot;font-size: 9px;&quot;&gt;Speech Recognition (ASR)&lt;/font&gt;" style="rounded=0;whiteSpace=wrap;html=1;" parent="1" vertex="1">
          <mxGeometry x="960" y="160" width="140" height="30" as="geometry" />
        </mxCell>
        <mxCell id="jr-n6Z9DIesCHv_oQTnh-1895" value="&lt;font style=&quot;font-size: 9px;&quot;&gt;Speech Synthesis (TTS)&lt;/font&gt;" style="rounded=0;whiteSpace=wrap;html=1;" parent="1" vertex="1">
          <mxGeometry x="960" y="200" width="140" height="30" as="geometry" />
        </mxCell>
        <mxCell id="jr-n6Z9DIesCHv_oQTnh-1896" value="&lt;font style=&quot;font-size: 9px;&quot;&gt;Speech Synthesis (TTS)&lt;/font&gt;" style="rounded=0;whiteSpace=wrap;html=1;" parent="1" vertex="1">
          <mxGeometry x="960" y="250" width="140" height="30" as="geometry" />
        </mxCell>
        <mxCell id="jr-n6Z9DIesCHv_oQTnh-1897" value="&lt;font style=&quot;font-size: 9px;&quot;&gt;Speaker Recognition&lt;/font&gt;" style="rounded=0;whiteSpace=wrap;html=1;" parent="1" vertex="1">
          <mxGeometry x="960" y="305" width="140" height="30" as="geometry" />
        </mxCell>
        <mxCell id="jr-n6Z9DIesCHv_oQTnh-1898" value="&lt;font style=&quot;font-size: 9px;&quot;&gt;Speaker Recognition&lt;/font&gt;" style="rounded=0;whiteSpace=wrap;html=1;" parent="1" vertex="1">
          <mxGeometry x="960" y="365" width="140" height="30" as="geometry" />
        </mxCell>
        <mxCell id="jr-n6Z9DIesCHv_oQTnh-1899" value="&lt;font style=&quot;font-size: 9px;&quot;&gt;Voice Activity Detection (VAD)&lt;/font&gt;" style="rounded=0;whiteSpace=wrap;html=1;" parent="1" vertex="1">
          <mxGeometry x="960" y="420" width="140" height="30" as="geometry" />
        </mxCell>
        <mxCell id="jr-n6Z9DIesCHv_oQTnh-1900" value="&lt;font style=&quot;font-size: 9px;&quot;&gt;Emotion Recognition&lt;/font&gt;" style="rounded=0;whiteSpace=wrap;html=1;" parent="1" vertex="1">
          <mxGeometry x="960" y="470" width="140" height="30" as="geometry" />
        </mxCell>
        <mxCell id="jr-n6Z9DIesCHv_oQTnh-1901" value="&lt;font style=&quot;font-size: 9px;&quot;&gt;Keyword Spotting&lt;/font&gt;" style="rounded=0;whiteSpace=wrap;html=1;" parent="1" vertex="1">
          <mxGeometry x="960" y="530" width="140" height="30" as="geometry" />
        </mxCell>
        <mxCell id="jr-n6Z9DIesCHv_oQTnh-1902" value="&lt;font style=&quot;font-size: 9px;&quot;&gt;Speech Enhancement&lt;/font&gt;" style="rounded=0;whiteSpace=wrap;html=1;" parent="1" vertex="1">
          <mxGeometry x="960" y="580" width="140" height="30" as="geometry" />
        </mxCell>
        <mxCell id="jr-n6Z9DIesCHv_oQTnh-1903" value="&lt;font style=&quot;font-size: 9px;&quot;&gt;Speech Translation&lt;/font&gt;" style="rounded=0;whiteSpace=wrap;html=1;" parent="1" vertex="1">
          <mxGeometry x="960" y="640" width="140" height="30" as="geometry" />
        </mxCell>
        <mxCell id="jr-n6Z9DIesCHv_oQTnh-1904" value="&lt;font style=&quot;font-size: 9px;&quot;&gt;Motion Planning&lt;/font&gt;" style="rounded=0;whiteSpace=wrap;html=1;" parent="1" vertex="1">
          <mxGeometry x="1220" y="160" width="140" height="30" as="geometry" />
        </mxCell>
        <mxCell id="jr-n6Z9DIesCHv_oQTnh-1905" value="&lt;font style=&quot;font-size: 9px;&quot;&gt;Robot Perception&lt;/font&gt;" style="rounded=0;whiteSpace=wrap;html=1;" parent="1" vertex="1">
          <mxGeometry x="1220" y="205" width="140" height="30" as="geometry" />
        </mxCell>
        <mxCell id="jr-n6Z9DIesCHv_oQTnh-1906" value="&lt;font style=&quot;font-size: 9px;&quot;&gt;Navigation&lt;/font&gt;" style="rounded=0;whiteSpace=wrap;html=1;" parent="1" vertex="1">
          <mxGeometry x="1220" y="350" width="140" height="30" as="geometry" />
        </mxCell>
        <mxCell id="jr-n6Z9DIesCHv_oQTnh-1907" value="&lt;font style=&quot;font-size: 9px;&quot;&gt;Localization&lt;/font&gt;" style="rounded=0;whiteSpace=wrap;html=1;" parent="1" vertex="1">
          <mxGeometry x="1220" y="250" width="140" height="30" as="geometry" />
        </mxCell>
        <mxCell id="jr-n6Z9DIesCHv_oQTnh-1908" value="Mapping" style="rounded=0;whiteSpace=wrap;html=1;" parent="1" vertex="1">
          <mxGeometry x="1220" y="295" width="140" height="30" as="geometry" />
        </mxCell>
        <mxCell id="jr-n6Z9DIesCHv_oQTnh-1909" value="&lt;font style=&quot;font-size: 9px;&quot;&gt;Grasping and Manipulation&lt;/font&gt;" style="rounded=0;whiteSpace=wrap;html=1;" parent="1" vertex="1">
          <mxGeometry x="1220" y="400" width="140" height="30" as="geometry" />
        </mxCell>
        <mxCell id="jr-n6Z9DIesCHv_oQTnh-1910" value="&lt;font style=&quot;font-size: 9px;&quot;&gt;Robot Vision&lt;/font&gt;" style="rounded=0;whiteSpace=wrap;html=1;" parent="1" vertex="1">
          <mxGeometry x="1220" y="460" width="140" height="30" as="geometry" />
        </mxCell>
        <mxCell id="jr-n6Z9DIesCHv_oQTnh-1911" value="&lt;font style=&quot;font-size: 9px;&quot;&gt;Reinforcement Learning&lt;/font&gt;" style="rounded=0;whiteSpace=wrap;html=1;" parent="1" vertex="1">
          <mxGeometry x="1220" y="510" width="140" height="30" as="geometry" />
        </mxCell>
        <mxCell id="jr-n6Z9DIesCHv_oQTnh-1912" value="&lt;font style=&quot;font-size: 9px;&quot;&gt;Multi-Robot Coordination&lt;/font&gt;" style="rounded=0;whiteSpace=wrap;html=1;" parent="1" vertex="1">
          <mxGeometry x="1220" y="560" width="140" height="30" as="geometry" />
        </mxCell>
        <mxCell id="jr-n6Z9DIesCHv_oQTnh-1913" value="&lt;font style=&quot;font-size: 9px;&quot;&gt;Multi-Robot Coordination&lt;/font&gt;" style="rounded=0;whiteSpace=wrap;html=1;" parent="1" vertex="1">
          <mxGeometry x="1220" y="610" width="140" height="30" as="geometry" />
        </mxCell>
        <mxCell id="jr-n6Z9DIesCHv_oQTnh-1914" value="&lt;font style=&quot;font-size: 9px;&quot;&gt;Human-Robot Interaction (HRI)&lt;/font&gt;" style="rounded=0;whiteSpace=wrap;html=1;" parent="1" vertex="1">
          <mxGeometry x="1220" y="660" width="140" height="30" as="geometry" />
        </mxCell>
        <mxCell id="jr-n6Z9DIesCHv_oQTnh-1915" value="&lt;font style=&quot;font-size: 9px;&quot;&gt;Teleoperation&lt;/font&gt;" style="rounded=0;whiteSpace=wrap;html=1;" parent="1" vertex="1">
          <mxGeometry x="1220" y="710" width="140" height="30" as="geometry" />
        </mxCell>
        <mxCell id="jr-n6Z9DIesCHv_oQTnh-1916" value="&lt;font style=&quot;font-size: 9px;&quot;&gt;Simulations&lt;/font&gt;" style="rounded=0;whiteSpace=wrap;html=1;" parent="1" vertex="1">
          <mxGeometry x="1220" y="770" width="140" height="30" as="geometry" />
        </mxCell>
      </root>
    </mxGraphModel>
  </diagram>
</mxfile>
